<svg xmlns="http://www.w3.org/2000/svg" viewBox="0 0 600 660">
  <defs>
    <style>
      .cls-1 {
        fill: #ce8882;
      }

      .cls-2 {
        fill: #4d4d4d;
      }

      .cls-3 {
        fill: #fea;
      }
    </style>
  </defs>
  <g id="cat">
    <g id="layer1">
      <g id="g8842">
        <path id="path5432-0-4-8-3-6-0" d="M99.48,30.1c-9-.25-16.37,8.7-16.57,20,0,.15,0,.3,0,.45V216.31a149.5,149.5,0,0,0,4.27,132.41,169.94,169.94,0,0,0-20.91,8A285.39,285.39,0,0,0,36,373.05l3.58,5.65a281.72,281.72,0,0,1,29.5-15.83A160,160,0,0,1,90.3,354.8q3.78,6.51,8.18,12.72A156,156,0,0,0,73,376.9a284.57,284.57,0,0,0-30.28,16.26l3.57,5.66A280.62,280.62,0,0,1,75.75,383a148,148,0,0,1,25-9.14c.79-.19,1.52-.31,2.28-.47q5,6.53,10.74,12.59a73,73,0,0,0-7.91,1.49A153.89,153.89,0,0,0,79.67,397a285.23,285.23,0,0,0-30.29,16.27L53,418.93a280.46,280.46,0,0,1,29.5-15.81,146.8,146.8,0,0,1,25-9.14,55.56,55.56,0,0,1,12.49-1.73q5,4.75,10.42,9.15a129,129,0,0,0-13.92,57.77c0,44.26,22.93,85.67,61.28,110.66C165.89,580.4,161,594,164.48,606.32c6.05,21,34.46,32.2,63.45,25h0c11.34-2.85,21.61-8.28,29.25-15.48a66.51,66.51,0,0,0,29.26,15.48c29,7.22,57.41-3.95,63.47-25h0c3.54-12.37-1.43-26-13.33-36.61a137.79,137.79,0,0,0,36.76-34.8c11.5,5.39,22.71,14.42,34.12,23.53,28.28,22.58,65.86,28.78,94.63,11.29s43.75-53.08,43.38-97a26.8,26.8,0,0,0-26.66-27h-.78a26.83,26.83,0,0,0-26.19,27.42c.26,31.86-10,46.12-17.6,50.74s-17.57,5.2-33.32-7.37c-10.46-8.35-25.34-21.47-45.78-30.67a127,127,0,0,0-11-84.45q5.34-4.41,10.27-9.18A57.28,57.28,0,0,1,407,394a147.42,147.42,0,0,1,25,9.14,281.7,281.7,0,0,1,29.5,15.81l3.59-5.65A286.81,286.81,0,0,0,434.74,397a153.37,153.37,0,0,0-26.14-9.54,76.84,76.84,0,0,0-7.72-1.47q5.69-6.06,10.71-12.57c.71.16,1.38.26,2.1.43a148,148,0,0,1,25,9.14,280.62,280.62,0,0,1,29.5,15.82l3.59-5.66a286.15,286.15,0,0,0-30.3-16.26,154.92,154.92,0,0,0-25.66-9.42q4.41-6.19,8.19-12.72a159.22,159.22,0,0,1,21.39,8.11,281.72,281.72,0,0,1,29.5,15.83l3.59-5.65a286.18,286.18,0,0,0-30.3-16.28,169.47,169.47,0,0,0-20.92-8,149.89,149.89,0,0,0,4.29-132.59V50.53c0-11.3-7.28-20.44-16.23-20.44h-.37a13.78,13.78,0,0,0-7.72,2.72L295.54,114.13a203,203,0,0,0-76.49.11L107.21,32.82a13.81,13.81,0,0,0-7.73-2.72Z"/>
        <path id="path5402-85-4-2-4-0-6-1" class="cls-1" d="M103,70.31V182.63a177.57,177.57,0,0,1,38.09-36.15Zm308.4,0-38.16,76.31a177.47,177.47,0,0,1,38.16,36.26Z"/>
        <ellipse id="path5420-2-5-11-3-7-7" class="cls-2" cx="257.21" cy="365.3" rx="20.11" ry="13.41"/>
        <path id="path5436-5-6-5-4-7-8-9-9" class="cls-3" d="M160.7,258.05c-19.92.38-38.54,8.54-49.79,23.23a5.8,5.8,0,0,0-1.16,4.14c2.45,24.1,22.75,44.15,49.53,50.79s54.91-1.37,69.91-21a5.85,5.85,0,0,0,1.17-4.14c-2.45-24.1-22.75-44.15-49.53-50.79a78.32,78.32,0,0,0-20.12-2.27h0Zm193,0a78,78,0,0,0-20.13,2.27C306.8,267,286.51,287,284.06,311.11a5.8,5.8,0,0,0,1.16,4.14c15,19.59,43.09,27.56,69.91,21s47.09-26.7,49.54-50.79a5.81,5.81,0,0,0-1.17-4.14c-11.25-14.69-29.86-22.85-49.78-23.23h0Z"/>
        <path id="path5379-6-7-6-7-8-5" d="M186.8,271.45c-9.25,0-16.76,9-16.76,20.11s7.51,20.11,16.76,20.11,16.76-9,16.76-20.11S196.06,271.45,186.8,271.45Zm140.8,0c-9.26,0-16.76,9-16.76,20.11s7.5,20.11,16.76,20.11,16.76-9,16.76-20.11S336.85,271.45,327.6,271.45Z"/>
      </g>
    </g>
  </g>
</svg>
