<svg id="dog" xmlns="http://www.w3.org/2000/svg" viewBox="0 0 600 660">
  <defs>
    <style>
      .cls-1 {
        fill: #a57d52;
      }

      .cls-2 {
        fill: #d3b189;
      }

      .cls-3 {
        fill: #e4c9ab;
      }

      .cls-4 {
        fill: #d1af88;
      }

      .cls-5 {
        fill: #e3c8aa;
      }

      .cls-6 {
        fill: #e1c6a8;
      }

      .cls-7 {
        fill: #684e3d;
      }

      .cls-8 {
        fill: #6c5240;
      }

      .cls-9 {
        fill: #fefefe;
      }

      .cls-10 {
        fill: #a47c51;
      }

      .cls-11 {
        fill: #7e5c49;
      }

      .cls-12 {
        fill: #8e6a59;
      }

      .cls-13 {
        fill: #fdfdfc;
      }

      .cls-14 {
        fill: #ee8e8c;
      }
    </style>
  </defs>
  <path class="cls-1" d="M108.49,577.33c-5.25-23.91-2.85-46.06,15.22-64.41,2.46-2.5,5.41-5.29,8.61-6.14,8.24-2.17,10.1-7.84,11.68-15.27,2.92-13.72,10.73-23.64,25.74-25.47,3-.36,3.93-1.83,4.46-4.16a144.26,144.26,0,0,1,10.65-31c2.37-4.9-.95-6.07-3.93-8-48.49-31.76-79.82-75.58-92.78-132.27-.56-2.48-1-5-1.47-7.5-.44-2.19-.89-4.38-1.52-7.53C73.88,283.41,63.09,291,51.08,296.45a113.13,113.13,0,0,1-28.23,9.14c-4.63.79-6.6-.55-7.29-5-6-39.05-8-78.05,1.43-116.9C32.69,119.23,82,79.51,148.25,79c15.24-.11,28.26-3,41.26-11.55,18.58-12.22,39.63-19.8,61.59-23.87,7.63-1.41,9.5-5.45,9.07-12-.49-7.42-2.48-14.61-4.85-21.56C253,3.35,256.37,3.15,261.09,4c11.72,2,19.58,9.55,25.43,19.17,3.17,5.22,5,5.9,9.56,1.15C303,17.09,310.91,10.89,321.5,10c2.72-.23,6.29-.89,7.65,2,1.11,2.35-2.26,3.58-3.58,5.32-2.47,3.24-5.17,6.32-6.54,10.25-.09.54-.19,1.09-.29,1.63l1.47-.61c4.14-1.2,8.26-2.45,12.41-3.6,3.54-1,5,0,3.36,3.76-.49,1.16-.52,2.51-1,3.68-2.61,6.53-.86,9,6.54,10.39a204.89,204.89,0,0,1,79,33.1c3.95,2.71,7.85,2.89,12.23,2.8,36-.75,70,6.09,99.06,29,27,21.19,41,50.11,48,82.83,7.8,36.4,5.55,72.91,0,109.38-.8,5.18-3.07,6.55-8.29,5.6-19.78-3.6-36.82-13-53.1-24.15-7.48-5.14-7.39-5.13-9.08,3.31-11.75,58.39-42.74,103.9-92.18,136.82-4.7,3.14-5.15,5.18-2.71,10,4.91,9.8,8,20.37,10.72,31,.56,2.14.29,4.55,3.22,5.47,14.93,4.71,20.36,16.7,22.81,30.64.54,3.07,1.88,4.16,4.5,5.11,21.38,7.72,30,24.72,32.55,45.76,1.2,9.9,0,19.81-1.4,29.65-5.67,16.51-13.69,31.3-27,43.33-18.73,17-51,20.73-69.05-4.35-2.39-3.32-3.7-3.41-7.15-1.42-13.79,8-28.24,9.69-43,2.57a9.56,9.56,0,0,0-9.29,0c-20.1,9.74-40.22,9.22-59.95-1-4.43-2.28-7.74-1.93-12,.21-15.29,7.66-30.53,7.21-44.71-2.62-5.11-3.54-7.42-2.71-10.66,2.12a41.5,41.5,0,0,1-47,16.26C129.23,625.27,115.42,604.21,108.49,577.33Zm320.18-57c-.26,6.84-3.65,13.22-2.95,20.19-3.15,4.2,1.31,4.09,3,4.75,20.25,7.68,35.53,20.5,43.43,41.17.2.51,1.06.76,1.88,1.31,7-16.81,8.67-33.64,2.76-50.77-6.37-18.43-21.44-28.53-38.91-26.57C431.93,511,427.52,513,428.67,520.29ZM173,537.91q-1.51-9.17-3-18.31c.48-3.55-1-5.72-4.4-7-11.8-4.24-23.07-3.51-33.23,4.13-22,16.48-21.15,54.1-10.26,71.22,9-23.18,25.6-37.63,49.12-44.25C174.93,542.71,174.38,540.46,173,537.91Zm235.65,53.48c-6.24,3.46-8.58,10.23-12.94,15.29-1.42,1.65-.05,3.51.95,4.88,5.75,7.79,12.75,13.83,22.8,15.11,17.51,2.23,36.83-7.51,45.8-22.86,2-3.4,1.76-6.62.48-10.2-5.46-15.24-15.5-26.55-29.07-35.08-13.16-8.26-14.56-7.85-18.77,6.56C415.3,574,409.32,581.77,408.68,591.39ZM179.07,565.71c3.38-4.78-.16-9-2.08-12.5-2-3.67-6.29-.41-8.89.53-20.49,7.5-33.69,22-40,42.94-.88,3,.09,4.89,1.49,7a52.52,52.52,0,0,0,29.29,22c16,4.91,31.86-1.27,39.88-15.34,1.4-2.46,3.2-5.28,1.11-7.82-4.37-5.31-6.26-12.22-11.27-17.06C186.45,578.41,185.22,570.87,179.07,565.71ZM340,561c8.39,0,16.85-1.16,25.16.45,14.51,2.83,25.17,11.5,33.35,23.44,3.06-1.76,3.7-4.67,4.78-7.14a255.7,255.7,0,0,0,11.82-33.8C425.07,507.76,422,472.6,408,438c-2.79-6.85-5.3-7.57-12-4.29Q317.66,472.26,233.8,447.2c-9-2.68-17.77-5.95-26.65-8.94a13.34,13.34,0,0,0-8.07-4.52c-4-3.45-5.82-.85-7.29,2.61-8.74,20.56-13.79,42.07-13.92,64.35-.16,28.15,8.17,54.53,19.07,80.2,2.17,5.13,4.05,3.92,6.52.24,6.21-9.25,15-14.92,25.48-18.41,10.11-3.37,20.4-1.74,30.93-1.34a8.86,8.86,0,0,0-.75-2.36c-15.52-21.26-23.54-45.43-27.33-71.15-1.62-11-.81-21.69,6.79-32.18.77,13.2-1.31,25.24,3,36.78.85-.26,1.46-.25,1.7-.55,1.75-2.18,3.29-4.55,5.13-6.64,13.54-15.33,30-24.64,50.91-25.6,21.52-1,39.06,7.24,54,22.07,1.41,1.39,2.69,4,4.71,3.4,2.81-.82,1.15-4,1.84-6,2.06-6.11.56-12.82,2.41-19.92,4.26,5.48,4.8,7,5.12,12,1.14,18.1-3.23,35.24-8.88,52.21-4.45,13.38-12,25.11-18.82,37.27l-.59.85ZM298,48.21c-3.83,0-7.66-.18-11.48,0s-7.54,1-11.32,1.36c-34.39,3.47-65.65,15.31-94.09,34.89-3.21,2.22-3.34,4.17-2.43,7.63,1.74,6.6,3.5,13.25,3.56,20.2.24,25.11-7.76,48.06-19.08,69.92-15.73,30.38-37.12,56.52-62.25,79.6-4.29,3.94-5.78,7.44-4.75,13.78,11.18,68.68,49,118.1,109.83,149.7,37.83,19.66,78.69,25.54,121.34,19.51,42.48-6,79.41-23.53,110.72-52.22,34.34-31.48,54.72-71,62.32-117,.79-4.82,0-8.8-4.08-12.24a229.09,229.09,0,0,1-20.7-20.18c-19.58-21.09-36-44.25-47.92-70.39s-19.48-53.14-10.77-82c1.37-4.53-1.09-5.83-3.89-7.75C378.27,59.41,339.62,48.82,298,48.21Zm6.82,569.35c3.14.24,8.35-1.12,13.49-2.46,9.57-2.48,9.63-2.92,5.46-11.52a32.63,32.63,0,0,1-2.27-6.44c-3.78-15.33,1.45-28.75,9.89-40.93a161.72,161.72,0,0,0,22.76-48c1.62-5.68,1.09-10.1-2.58-14.85C322.85,456.17,270,461,247,502.8c-1.73,3.14-1.83,5.88-.84,9.36,4.77,16.9,13.47,31.66,22.95,46.27S283.34,589,274,605.87c-1.79,3.22,0,4,2.09,5.07C284.35,615.25,293.19,617.26,304.77,617.56Zm-35-27.51c-.45-7.15.77-13.58-5.31-17.16-18.12-10.64-47-2-56.54,16.67-1.65,3.24-2,6.15.59,9.13,6.33,7.26,13.54,13,23.25,15.1C249,617.54,271.62,607.56,269.73,590.05Zm83.79-21.67c-6.31-.2-12.11,1.72-17.84,3.87-1.89.71-3.86,1.59-4.6,3.73-4,11.58-2.47,27.17,10.45,34a38.79,38.79,0,0,0,49.11-11.22c2.35-3.18,2.41-5.6.65-8.88C383.15,574.78,369.67,569.27,353.52,568.38ZM128.89,95.67a24.13,24.13,0,0,0-4.5,0c-34.22,6.69-61.3,23.58-78.34,54.85-16.39,30.1-19.77,62.75-17.88,96.09.46,8.06-.93,16.94,3.75,25.87C30.49,194.35,47.47,127.71,128.89,95.67ZM465.44,96c18.77,7,36.26,16,50.8,30,31.79,30.49,43.31,69.64,46.81,111.91,1,12.13.15,24.4.15,36.61,4-25.63,5.4-51.35,1.39-77-4.65-29.65-16.05-56.07-39.19-76.38C508.22,106.06,488,98.38,465.44,96ZM151.61,496.43c-.77,3.28,1.19,4.78,4.39,5.32,3,.51,6.08.67,8.92,1.61,4.1,1.35,4.91-.46,5-4,.07-6.59-.31-13.27.68-19.73.83-5.48-1.52-5-4.9-3.88C159.07,477.94,151.84,488.52,151.61,496.43Zm283.5,6.14c6.4-.14,7.92-2.34,6.1-8.6-1.44-5-3.56-9.53-7.5-13.05-1.1-1-2.09-2.58-3.79-2-1.91.62-1.36,2.55-1.26,3.94.4,5.56,1,11.11,1.45,16.67C430.38,502.94,432.82,502.57,435.11,502.57Z"/>
  <path class="cls-2" d="M298,48.21c41.67.61,80.32,11.2,115,34.87,2.8,1.92,5.26,3.22,3.89,7.75-8.71,28.88-1.1,55.92,10.77,82s28.34,49.3,47.92,70.39a229.09,229.09,0,0,0,20.7,20.18c4.1,3.44,4.87,7.42,4.08,12.24-7.6,46-28,85.49-62.32,117-31.31,28.69-68.24,46.2-110.72,52.22-42.65,6-83.51.15-121.34-19.51-60.81-31.6-98.65-81-109.83-149.7-1-6.34.46-9.84,4.75-13.78,25.13-23.08,46.52-49.22,62.25-79.6,11.32-21.86,19.32-44.81,19.08-69.92-.06-7-1.82-13.6-3.56-20.2-.91-3.46-.78-5.41,2.43-7.63,28.44-19.58,59.7-31.42,94.09-34.89,3.78-.38,7.54-1.12,11.32-1.36S294.12,48.21,298,48.21Zm-163.4,234.2c-3.38.49-2.79,3.13-2.79,5.32,0,8.38-.37,16.74,1.49,25.06,9,40.29,28.21,73.86,63.69,96.6,20.67,13.25,43.52,19.76,67.78,23.44a215.85,215.85,0,0,0,87.45-4.66c46.8-12.11,80.77-40.36,101.51-84.3,15-31.8,18.61-63.58.79-95.61-13.26-23.82-32.55-40.29-60-43.72-46.33-5.8-79.51,30.76-86.77,66.9l-16.81-1.22c-5.62-20-15.7-37.18-32.37-50.1-19.7-15.25-41.44-20-65.54-13C146.53,206.78,123.19,249.86,134.55,282.41ZM208,82.67q90.41-35,179.72,3.14C337.09,50.13,261.26,48.24,208,82.67Z"/>
  <path class="cls-2" d="M207.15,438.26c8.88,3,17.68,6.26,26.65,8.94Q317.5,472.28,396,433.74c6.67-3.28,9.18-2.56,12,4.29,14.06,34.57,17.11,69.73,7.13,105.88a255.7,255.7,0,0,1-11.82,33.8c-1.08,2.47-1.72,5.38-4.78,7.14-8.18-11.94-18.84-20.61-33.35-23.44-8.31-1.61-16.77-.44-25.16-.45l-.28-.28c6.79-12.16,14.37-23.89,18.82-37.27,5.65-17,10-34.11,8.88-52.21-.32-5-.86-6.49-5.12-12-1.85,7.1-.35,13.81-2.41,19.92-.69,2,1,5.19-1.84,6-2,.58-3.3-2-4.71-3.4-15-14.83-32.5-23.07-54-22.07-20.88,1-37.37,10.27-50.91,25.6-1.84,2.09-3.38,4.46-5.13,6.64-.24.3-.85.29-1.7.55-4.29-11.54-2.21-23.58-3-36.78-7.6,10.49-8.41,21.2-6.79,32.18,3.79,25.72,11.81,49.89,27.33,71.15a8.86,8.86,0,0,1,.75,2.36c-10.53-.4-20.82-2-30.93,1.34-10.47,3.49-19.27,9.16-25.48,18.41-2.47,3.68-4.35,4.89-6.52-.24-10.9-25.67-19.23-52-19.07-80.2.13-22.28,5.18-43.79,13.92-64.35,1.47-3.46,3.31-6.06,7.29-2.61C187.62,456.18,184,479.94,185,505.05c.88,21.67,5.79,42.11,13.45,62.13.75,2,.63,5.71,3.52,5,3.27-.86.73-3.81.26-5.69-7.95-31.73-12.43-63.69-6.15-96.29C198.21,459,200,447.69,207.15,438.26Z"/>
  <path class="cls-3" d="M304.77,617.56c-11.58-.3-20.42-2.31-28.69-6.62-2.1-1.09-3.88-1.85-2.09-5.07,9.35-16.84,4.62-32.81-4.86-47.44S251,529.06,246.18,512.16c-1-3.48-.89-6.22.84-9.36,22.93-41.77,75.83-46.63,104.5-9.46,3.67,4.75,4.2,9.17,2.58,14.85a161.72,161.72,0,0,1-22.76,48c-8.44,12.18-13.67,25.6-9.89,40.93a32.63,32.63,0,0,0,2.27,6.44c4.17,8.6,4.11,9-5.46,11.52C313.12,616.44,307.91,617.8,304.77,617.56Z"/>
  <path class="cls-4" d="M188.63,585.49c5,4.84,6.9,11.75,11.27,17.06,2.09,2.54.29,5.36-1.11,7.82-8,14.07-23.85,20.25-39.88,15.34a52.52,52.52,0,0,1-29.29-22c-1.4-2.14-2.37-4.08-1.49-7,6.28-20.94,19.48-35.44,40-42.94,2.6-.94,6.88-4.2,8.89-.53,1.92,3.51,5.46,7.72,2.08,12.5-10.23-3.23-19-.18-26.76,6.48-7,6-9.53,16.33-6.11,23.37,3.27,6.74,11.93,10.8,20,9.14C177.21,602.45,185.33,596.74,188.63,585.49Z"/>
  <path class="cls-5" d="M269.73,590.05c1.89,17.51-20.78,27.49-38,23.74-9.71-2.11-16.92-7.84-23.25-15.1-2.59-3-2.24-5.89-.59-9.13,9.5-18.66,38.42-27.31,56.54-16.67C270.5,576.47,269.28,582.9,269.73,590.05Zm-9.44,7.34c-1.55-10.62-7-15.88-15-16C251.45,584.84,255.57,589.84,260.29,597.39ZM241.05,603c-.4-8.28-5.83-13.63-14.18-14.1A44,44,0,0,1,241.05,603Z"/>
  <path class="cls-5" d="M353.52,568.38c16.15.89,29.63,6.4,37.77,21.52,1.76,3.28,1.7,5.7-.65,8.88A38.79,38.79,0,0,1,341.53,610c-12.92-6.85-14.47-22.44-10.45-34,.74-2.14,2.71-3,4.6-3.73C341.41,570.1,347.21,568.18,353.52,568.38Zm-.73,13.19c-10.11,1.48-15.83,9.17-14.5,19.95C341.18,592.79,345.45,586.1,352.79,581.57Zm15.79,7.69c-7.4,1.25-13,8.66-12.08,19.27,2-3.84,3.58-7.51,5.72-10.84C364.48,594.18,367.25,591,368.58,589.26Z"/>
  <path class="cls-4" d="M417.93,565.09c4.21-14.41,5.61-14.82,18.77-6.56,13.57,8.53,23.61,19.84,29.07,35.08,1.28,3.58,1.5,6.8-.48,10.2-9,15.35-28.29,25.09-45.8,22.86-10.05-1.28-17.05-7.32-22.8-15.11-1-1.37-2.37-3.23-.95-4.88,4.36-5.06,6.7-11.83,12.94-15.29a28.37,28.37,0,0,0,14.51,11.86c9.56,3.71,19.92,1.09,24.67-6.13s2.31-17.16-5.12-24.89C435.7,564.9,426.81,565.32,417.93,565.09Z"/>
  <path class="cls-6" d="M173,537.91c1.35,2.55,1.9,4.8-1.81,5.84C147.7,550.37,131.1,564.82,122.1,588c-10.89-17.12-11.7-54.74,10.26-71.22,10.16-7.64,21.43-8.37,33.23-4.13,3.41,1.23,4.88,3.4,4.4,7-4.87-.77-8.48,1-10.14,5.66a11,11,0,0,0,2.27,11.88C165.49,540.76,169.23,540,173,537.91Zm-36.5-6c.06,6.21,4.93,12.25,9.48,11.88,5.25-.41,7.32-4,7.33-8.94,0-6.14-4.08-11-9.27-10.94C138.36,524,137.11,528,136.53,531.91ZM138,551.65c0-7.41-4.83-12.74-10.21-12.41-5.13.31-6.93,3.64-6.92,8.27,0,5.79,5.35,12,10.16,11.36C135.67,558.24,137.88,555,138,551.65Z"/>
  <path class="cls-6" d="M428.67,520.29c-1.15-7.26,3.26-9.25,9.26-9.92,17.47-2,32.54,8.14,38.91,26.57,5.91,17.13,4.27,34-2.76,50.77-.82-.55-1.68-.8-1.88-1.31-7.9-20.67-23.18-33.49-43.43-41.17-1.74-.66-6.2-.55-3-4.75,6.31.72,9.63-2.64,10.51-8.38S435.54,521.43,428.67,520.29Zm13.52,16.09c.22,3.92,1.89,7.63,7.42,7.86,5,.2,9.67-5.1,9.5-10.9-.14-4.81-2.26-8.51-7.49-9C447,524,442.24,529.83,442.19,536.38ZM474.72,548c.08-4.83-2.24-7.86-7.07-8.22s-10.08,5.91-10,11.59c.11,4.66,2.1,7.89,7.19,8.06C470.24,559.55,474.79,554.15,474.72,548Z"/>
  <path class="cls-4" d="M128.89,95.67c-81.42,32-98.4,98.68-97,176.84-4.68-8.93-3.29-17.81-3.75-25.87-1.89-33.34,1.49-66,17.88-96.09,17-31.27,44.12-48.16,78.34-54.85A24.13,24.13,0,0,1,128.89,95.67Z"/>
  <path class="cls-4" d="M465.44,96c22.53,2.38,42.78,10.06,60,25.15,23.14,20.31,34.54,46.73,39.19,76.38,4,25.63,2.59,51.35-1.39,77,0-12.21.85-24.48-.15-36.61-3.5-42.27-15-81.42-46.81-111.91C501.7,112,484.21,103,465.44,96Z"/>
  <path class="cls-7" d="M188.63,585.49c-3.3,11.25-11.42,17-22.39,19.21-8.11,1.66-16.77-2.4-20-9.14-3.42-7-.91-17.33,6.11-23.37,7.74-6.66,16.53-9.71,26.76-6.48C185.22,570.87,186.45,578.41,188.63,585.49Z"/>
  <path class="cls-7" d="M417.93,565.09c8.88.23,17.77-.19,24.81,7.14,7.43,7.73,9.81,17.75,5.12,24.89s-15.11,9.84-24.67,6.13a28.37,28.37,0,0,1-14.51-11.86C409.32,581.77,415.3,574,417.93,565.09Z"/>
  <path class="cls-5" d="M207.15,438.26c-7.14,9.43-8.94,20.78-11.08,31.89-6.28,32.6-1.8,64.56,6.15,96.29.47,1.88,3,4.83-.26,5.69-2.89.76-2.77-3-3.52-5-7.66-20-12.57-40.46-13.45-62.13-1-25.11,2.63-48.87,14.09-71.31A13.34,13.34,0,0,1,207.15,438.26Z"/>
  <path class="cls-4" d="M151.61,496.43c.23-7.91,7.46-18.49,14-20.65,3.38-1.11,5.73-1.6,4.9,3.88-1,6.46-.61,13.14-.68,19.73,0,3.51-.85,5.32-5,4-2.84-.94-5.94-1.1-8.92-1.61C152.8,501.21,150.84,499.71,151.61,496.43Z"/>
  <path class="cls-4" d="M435.11,502.57c-2.29,0-4.73.37-5-3.07-.44-5.56-1.05-11.11-1.45-16.67-.1-1.39-.65-3.32,1.26-3.94,1.7-.55,2.69,1.05,3.79,2,3.94,3.52,6.06,8.07,7.5,13.05C443,500.23,441.51,502.43,435.11,502.57Z"/>
  <path class="cls-8" d="M173,537.91c-3.8,2.05-7.54,2.85-10.91-.77a11,11,0,0,1-2.27-11.88c1.66-4.61,5.27-6.43,10.14-5.66Q171.51,528.75,173,537.91Z"/>
  <path class="cls-8" d="M428.67,520.29c6.87,1.14,8.45,5.92,7.56,11.81s-4.2,9.1-10.51,8.38C425,533.51,428.41,527.13,428.67,520.29Z"/>
  <path class="cls-9" d="M320.21,28.56l-1.47.61c.1-.54.2-1.09.29-1.63Z"/>
  <path class="cls-2" d="M340,561l-.87.57.59-.85Z"/>
  <path class="cls-3" d="M193,207.13c24.1-7,45.84-2.26,65.54,13,16.67,12.92,26.75,30.07,32.37,50.1-9,2.12-18.33,3.19-26.76,7.63-15.75,8.31-21.7,18.62-20.35,36.08-11.05,6.22-18.82,15.05-20,28-.54,6,.84,12.09,1.34,18.15-1,.52-1.71,1.3-1.31,2.42,5.18,14.39,14.28,24.45,30.06,27.11,1.69,25,28.52,42.9,53.12,35.39,18.14-5.54,27.79-18.41,31.35-36.5,3-1.24,6.37-2,8.95-3.82,8.43-6,16.05-12.7,15.39-24.49,0-1.76-.37-3.63.09-5.27,4.83-17.25-2-29.8-15.76-39.61,2.51-13.07-1.14-23.82-11.73-32.21-8.15-6.46-17.69-9.42-27.58-11.68,7.26-36.14,40.44-72.7,86.77-66.9,27.4,3.43,46.69,19.9,60,43.72,17.82,32,14.22,63.81-.79,95.61-20.74,43.94-54.71,72.19-101.51,84.3a215.85,215.85,0,0,1-87.45,4.66c-24.26-3.68-47.11-10.19-67.78-23.44-35.48-22.74-54.68-56.31-63.69-96.6-1.86-8.32-1.5-16.68-1.49-25.06,0-2.19-.59-4.83,2.79-5.32.5,1.44,1,2.88,1.51,4.3,9.21,24.55,36.39,40.73,61.38,36.56,29.23-4.88,50.33-28.33,50.59-56.22C248.33,235,226.85,211.6,193,207.13Zm186.35,75.63c.22,5.57,3.13,8.65,8.55,8.65,5.13,0,8.24-3.3,8.32-8.11.09-5.21-3.1-8.62-8.6-8.58C382.58,274.76,379.82,277.73,379.38,282.76Z"/>
  <path class="cls-10" d="M193,207.13c33.82,4.47,55.3,27.87,55,59.92-.26,27.89-21.36,51.34-50.59,56.22-25,4.17-52.17-12-61.38-36.56-.53-1.42-1-2.86-1.51-4.3C123.19,249.86,146.53,206.78,193,207.13ZM217.52,283c.28-6-3.38-8.18-8.53-8.22-5.33,0-8,3.95-8,8.4s2.76,8.39,8.11,8.24C214.32,291.24,217.92,289,217.52,283Z"/>
  <path class="cls-11" d="M307.75,271.44c9.89,2.26,19.43,5.22,27.58,11.68,10.59,8.39,14.24,19.14,11.73,32.21-7.46,14.85-20.13,22.44-35.91,25.58-5.21,1-10.49,1.73-15.74,2.58h-2.84c-2-2.26-4.78-1.1-7.18-1.49-18.17-3-33.6-10-41.56-28.07-1.35-17.46,4.6-27.77,20.35-36.08,8.43-4.44,17.72-5.51,26.76-7.63Zm-23.89,33.74a31.38,31.38,0,0,0,22.39-5.63c6.4-4.46,5.91-9-1-12.35-8.68-4.24-29.74-1.09-36,5.64-3.54,3.79-3.79,7.55,1.28,10.63C274.76,306.07,279.39,305,283.86,305.18Z"/>
  <path class="cls-5" d="M208,82.67c53.31-34.43,129.14-32.54,179.72,3.14Q298.33,47.54,208,82.67Z"/>
  <path class="cls-11" d="M260.29,597.39c-4.72-7.55-8.84-12.55-15-16C253.27,581.51,258.74,586.77,260.29,597.39Z"/>
  <path class="cls-11" d="M241.05,603a44,44,0,0,0-14.18-14.1C235.22,589.36,240.65,594.71,241.05,603Z"/>
  <path class="cls-12" d="M352.79,581.57c-7.34,4.53-11.61,11.22-14.5,19.95C337,590.74,342.68,583.05,352.79,581.57Z"/>
  <path class="cls-12" d="M368.58,589.26c-1.33,1.73-4.1,4.92-6.36,8.43-2.14,3.33-3.73,7-5.72,10.84C355.58,597.92,361.18,590.51,368.58,589.26Z"/>
  <path class="cls-8" d="M136.53,531.91c.58-3.89,1.83-7.91,7.54-8,5.19-.08,9.3,4.8,9.27,10.94,0,5-2.08,8.53-7.33,8.94C141.46,544.16,136.59,538.12,136.53,531.91Z"/>
  <path class="cls-8" d="M138,551.65c-.1,3.33-2.31,6.59-7,7.22s-10.16-5.57-10.16-11.36c0-4.63,1.79-8,6.92-8.27C133.15,538.91,138,544.24,138,551.65Z"/>
  <path class="cls-8" d="M442.19,536.38c.05-6.55,4.8-12.42,9.43-12,5.23.46,7.35,4.16,7.49,9,.17,5.8-4.52,11.1-9.5,10.9C444.08,544,442.41,540.3,442.19,536.38Z"/>
  <path class="cls-8" d="M474.71,548c.08,6.19-4.47,11.59-9.83,11.42-5.09-.17-7.08-3.4-7.19-8.06-.12-5.68,5.09-11.94,10-11.59S474.8,543.12,474.71,548Z"/>
  <path class="cls-13" d="M243.83,313.93c8,18.09,23.39,25.07,41.56,28.07,2.4.39,5.16-.77,7.18,1.49-.79,7.43,1.18,15.13-3.41,22.14-7.9,12.05-23.83,18.3-38,15.17-12.24-2.71-19.23-11.44-26-20.7-.5-6.06-1.88-12.19-1.34-18.15C225,329,232.78,320.15,243.83,313.93Z"/>
  <path class="cls-14" d="M338.39,388.52c-3.56,18.09-13.21,31-31.35,36.5-24.6,7.51-51.43-10.39-53.11-35.4,19.18.69,32.35-8.06,39.66-26C308.18,386.58,316.27,391,338.39,388.52Z"/>
  <path class="cls-13" d="M295.41,343.49c5.25-.85,10.53-1.55,15.74-2.58,15.78-3.14,28.45-10.73,35.91-25.58,13.77,9.81,20.59,22.36,15.76,39.61-.46,1.64-.08,3.51-.09,5.27-2.65,1.44-3.25,4.41-4.91,6.6-8.39,11-19.51,16.09-33.23,14.65-8.89-.94-16-5.49-22.57-11.65C293.91,362.2,295.82,352.69,295.41,343.49Z"/>
  <path class="cls-12" d="M295.41,343.49c.41,9.2-1.5,18.71,6.61,26.32,6.56,6.16,13.68,10.71,22.57,11.65,13.72,1.44,24.84-3.61,33.23-14.65,1.66-2.19,2.26-5.16,4.91-6.6.66,11.79-7,18.51-15.39,24.49-2.58,1.84-5.94,2.58-8.95,3.82-22.12,2.49-30.21-1.94-44.8-24.9-7.31,17.94-20.48,26.69-39.66,26-15.79-2.65-24.89-12.71-30.07-27.1-.4-1.12.34-1.9,1.31-2.42,6.79,9.26,13.78,18,26,20.7,14.14,3.13,30.07-3.12,38-15.17,4.59-7,2.62-14.71,3.41-22.14Z"/>
  <path class="cls-8" d="M379.38,282.76c.44-5,3.2-8,8.27-8,5.5,0,8.69,3.37,8.6,8.58-.08,4.81-3.19,8.12-8.32,8.11C382.51,291.41,379.6,288.33,379.38,282.76Z"/>
  <path class="cls-7" d="M217.51,283c.41,6-3.19,8.27-8.36,8.42-5.35.15-8.06-3.8-8.11-8.24s2.62-8.44,8-8.4C214.14,274.79,217.8,277,217.51,283Z"/>
  <path class="cls-12" d="M283.86,305.18c-4.47-.23-9.1.89-13.35-1.71-5.07-3.08-4.82-6.84-1.28-10.63,6.29-6.73,27.35-9.88,36-5.64,6.9,3.37,7.39,7.89,1,12.35A31.38,31.38,0,0,1,283.86,305.18Z"/>
</svg>
