<svg id="Layer_1" data-name="Layer 1" xmlns="http://www.w3.org/2000/svg" xmlns:xlink="http://www.w3.org/1999/xlink" viewBox="0 0 400 256">
  <defs>
    <style>
      .cls-1 {
        fill: none;
      }

      .cls-2 {
        fill: url(#New_Gradient_Swatch_1);
      }

      .cls-3 {
        fill: url(#linear-gradient);
      }

      .cls-4 {
        fill: url(#linear-gradient-2);
      }

      .cls-5 {
        fill: url(#linear-gradient-3);
      }

      .cls-6 {
        fill: url(#New_Gradient_Swatch_15);
      }

      .cls-7 {
        fill: url(#New_Gradient_Swatch_16);
      }

      .cls-8 {
        fill: #fff;
      }

      .cls-9 {
        fill: url(#linear-gradient-4);
      }

      .cls-10 {
        fill: url(#linear-gradient-5);
      }

      .cls-11 {
        fill: url(#linear-gradient-6);
      }

      .cls-12 {
        fill: url(#linear-gradient-7);
      }

      .cls-13 {
        fill: url(#linear-gradient-8);
      }

      .cls-14 {
        fill: url(#linear-gradient-9);
      }

      .cls-15 {
        fill: url(#linear-gradient-10);
      }

      .cls-16 {
        fill: url(#linear-gradient-11);
      }

      .cls-17 {
        fill: url(#linear-gradient-12);
      }

      .cls-18 {
        fill: url(#linear-gradient-13);
      }

      .cls-19 {
        fill: url(#linear-gradient-14);
      }

      .cls-20 {
        fill: url(#linear-gradient-15);
      }

      .cls-21 {
        fill: url(#linear-gradient-16);
      }

      .cls-22 {
        fill: url(#linear-gradient-17);
      }

      .cls-23 {
        fill: url(#linear-gradient-18);
      }

      .cls-24 {
        fill: url(#linear-gradient-19);
      }

      .cls-25 {
        fill: url(#linear-gradient-20);
      }

      .cls-26 {
        fill: url(#linear-gradient-21);
      }

      .cls-27 {
        fill: url(#linear-gradient-22);
      }

      .cls-28 {
        fill: url(#linear-gradient-23);
      }

      .cls-29 {
        fill: url(#linear-gradient-24);
      }

      .cls-30 {
        fill: url(#linear-gradient-25);
      }

      .cls-31 {
        fill: url(#linear-gradient-26);
      }

      .cls-32 {
        fill: url(#linear-gradient-27);
      }

      .cls-33 {
        fill: url(#linear-gradient-28);
      }

      .cls-34 {
        fill: url(#linear-gradient-29);
      }

      .cls-35 {
        fill: url(#linear-gradient-30);
      }

      .cls-36 {
        fill: url(#linear-gradient-31);
      }

      .cls-37 {
        fill: url(#linear-gradient-32);
      }

      .cls-38 {
        fill: url(#linear-gradient-33);
      }

      .cls-39 {
        fill: url(#linear-gradient-34);
      }

      .cls-40 {
        fill: url(#linear-gradient-35);
      }

      .cls-41 {
        fill: url(#linear-gradient-36);
      }

      .cls-42 {
        fill: url(#linear-gradient-37);
      }

      .cls-43 {
        fill: url(#linear-gradient-38);
      }

      .cls-44 {
        fill: url(#linear-gradient-39);
      }

      .cls-45 {
        fill: url(#linear-gradient-40);
      }

      .cls-46 {
        fill: url(#linear-gradient-41);
      }

      .cls-47 {
        fill: url(#linear-gradient-42);
      }

      .cls-48 {
        fill: url(#linear-gradient-43);
      }

      .cls-49 {
        fill: url(#linear-gradient-44);
      }

      .cls-50 {
        fill: url(#linear-gradient-45);
      }

      .cls-51 {
        fill: url(#linear-gradient-46);
      }

      .cls-52 {
        fill: url(#New_Gradient_Swatch_14);
      }

      .cls-53 {
        fill: url(#linear-gradient-47);
      }

      .cls-54 {
        fill: url(#linear-gradient-48);
      }

      .cls-55 {
        fill: url(#linear-gradient-49);
      }

      .cls-56 {
        clip-path: url(#clip-path);
      }

      .cls-57 {
        fill: #b8d55d;
      }

      .Graphic-Style {
        fill: url(#New_Gradient_Swatch_5);
      }

      .cls-58 {
        fill: #72b549;
      }

      .cls-59 {
        fill: url(#New_Gradient_Swatch_2);
      }

      .cls-60 {
        fill: #abaab0;
        fill-rule: evenodd;
      }

      .cls-61 {
        fill: #a9a8b1;
      }

      .cls-62 {
        fill: url(#linear-gradient-50);
      }

      .cls-63 {
        fill: url(#linear-gradient-51);
      }

      .cls-64 {
        fill: url(#linear-gradient-52);
      }

      .cls-65 {
        opacity: 0.2;
      }

      .cls-66 {
        clip-path: url(#clip-path-2);
      }

      .cls-67 {
        clip-path: url(#clip-path-3);
      }

      .cls-68 {
        fill: url(#New_Gradient_Swatch_13);
      }

      .cls-69 {
        fill: url(#linear-gradient-53);
      }

      .cls-70 {
        fill: url(#New_Gradient_Swatch_12);
      }

      .cls-71 {
        fill: url(#linear-gradient-54);
      }

      .cls-72 {
        fill: url(#linear-gradient-55);
      }

      .cls-73 {
        fill: url(#linear-gradient-56);
      }

      .cls-74 {
        fill: url(#New_Gradient_Swatch_5-2);
      }

      .cls-75 {
        fill: url(#linear-gradient-57);
      }

      .cls-76 {
        fill: #ffeb81;
      }

      .cls-77 {
        fill: #fff9c1;
      }

      .cls-78 {
        fill: url(#linear-gradient-58);
      }

      .cls-79 {
        fill: #807667;
      }

      .cls-80 {
        fill: url(#linear-gradient-59);
      }

      .cls-81 {
        fill: url(#New_Gradient_Swatch_4);
      }

      .cls-82 {
        fill: url(#New_Gradient_Swatch_3);
      }

      .cls-83 {
        fill: url(#linear-gradient-60);
      }

      .cls-84 {
        fill: url(#linear-gradient-61);
      }

      .cls-85 {
        fill: url(#linear-gradient-62);
      }
    </style>
    <linearGradient id="New_Gradient_Swatch_1" data-name="New Gradient Swatch 1" x1="649.7" y1="111.88" x2="665.49" y2="-236.7" gradientTransform="translate(-450.74)" gradientUnits="userSpaceOnUse">
      <stop offset="0.01" stop-color="#fffdf2"/>
      <stop offset="0.08" stop-color="#e9f6f3"/>
      <stop offset="0.25" stop-color="#b1e2f6"/>
      <stop offset="0.33" stop-color="#93d8f7"/>
      <stop offset="0.88" stop-color="#00adee"/>
    </linearGradient>
    <linearGradient id="linear-gradient" x1="357.68" y1="147.85" x2="361.11" y2="73.26" gradientUnits="userSpaceOnUse">
      <stop offset="0" stop-color="#e9f6fd"/>
      <stop offset="0.27" stop-color="#e1edf9"/>
      <stop offset="1" stop-color="#ced9ef"/>
    </linearGradient>
    <linearGradient id="linear-gradient-2" x1="322.7" y1="191.82" x2="325.36" y2="100.88" gradientUnits="userSpaceOnUse">
      <stop offset="0" stop-color="#e9f6fd"/>
      <stop offset="0.25" stop-color="#e2eef9"/>
      <stop offset="1" stop-color="#d1daef"/>
    </linearGradient>
    <linearGradient id="linear-gradient-3" x1="322.59" y1="186.62" x2="324.96" y2="105.49" gradientUnits="userSpaceOnUse">
      <stop offset="0" stop-color="#e9f6fd"/>
      <stop offset="0.38" stop-color="#dce7f5"/>
      <stop offset="1" stop-color="#c9d3eb"/>
    </linearGradient>
    <linearGradient id="New_Gradient_Swatch_15" data-name="New Gradient Swatch 15" x1="322.49" y1="186.61" x2="324.86" y2="105.49" xlink:href="#linear-gradient-2"/>
    <linearGradient id="New_Gradient_Swatch_16" data-name="New Gradient Swatch 16" x1="299.46" y1="135.61" x2="319.45" y2="101.77" gradientTransform="translate(-183.7)" gradientUnits="userSpaceOnUse">
      <stop offset="0" stop-color="#e9f6fd"/>
      <stop offset="0.41" stop-color="#d8ebf8"/>
      <stop offset="1" stop-color="#c4def3"/>
    </linearGradient>
    <linearGradient id="linear-gradient-4" x1="51.56" y1="168.64" x2="54.27" y2="143.03" gradientUnits="userSpaceOnUse">
      <stop offset="0" stop-color="#fff"/>
      <stop offset="0.59" stop-color="#daf1fc"/>
      <stop offset="1" stop-color="#c6e9fa"/>
    </linearGradient>
    <linearGradient id="linear-gradient-5" x1="27.14" y1="180.99" x2="36.99" y2="103.96" gradientUnits="userSpaceOnUse">
      <stop offset="0" stop-color="#e9f6fd"/>
      <stop offset="0.45" stop-color="#d5eaf8"/>
      <stop offset="1" stop-color="#c1ddf3"/>
    </linearGradient>
    <linearGradient id="linear-gradient-6" x1="4826.7" y1="167.92" x2="4834.24" y2="76.84" gradientTransform="matrix(-1, 0, 0, 1, 4833.93, 0)" xlink:href="#linear-gradient-5"/>
    <linearGradient id="linear-gradient-7" x1="173.84" y1="163.31" x2="175.05" y2="125.09" xlink:href="#linear-gradient-4"/>
    <linearGradient id="linear-gradient-8" x1="218.65" y1="164.51" x2="219.54" y2="131.65" gradientUnits="userSpaceOnUse">
      <stop offset="0" stop-color="#f1f9fd"/>
      <stop offset="0.45" stop-color="#ddf2fc"/>
      <stop offset="1" stop-color="#c9eafb"/>
    </linearGradient>
    <linearGradient id="linear-gradient-9" x1="196.56" y1="169.42" x2="199.09" y2="134.76" xlink:href="#linear-gradient-4"/>
    <linearGradient id="linear-gradient-10" x1="259.19" y1="170.61" x2="257.88" y2="155.75" gradientUnits="userSpaceOnUse">
      <stop offset="0" stop-color="#f1f9fd"/>
      <stop offset="0.45" stop-color="#ddedf9"/>
      <stop offset="1" stop-color="#c9e1f4"/>
    </linearGradient>
    <linearGradient id="linear-gradient-11" x1="282.86" y1="167.32" x2="282.86" y2="140.61" xlink:href="#linear-gradient-8"/>
    <linearGradient id="linear-gradient-12" x1="-450.98" y1="148.26" x2="-437.54" y2="90.2" gradientTransform="translate(605.24)" gradientUnits="userSpaceOnUse">
      <stop offset="0.06" stop-color="#eef8fd"/>
      <stop offset="0.59" stop-color="#cde4f6"/>
      <stop offset="1" stop-color="#b9d8f1"/>
    </linearGradient>
    <linearGradient id="linear-gradient-13" x1="-439.1" y1="138.4" x2="-422.68" y2="132.45" gradientTransform="translate(605.24)" gradientUnits="userSpaceOnUse">
      <stop offset="0" stop-color="#eef8fd"/>
      <stop offset="0.52" stop-color="#d3e8f7"/>
      <stop offset="1" stop-color="#bfdcf3"/>
    </linearGradient>
    <linearGradient id="linear-gradient-14" x1="-453.05" y1="132.34" x2="-450.72" y2="112.12" gradientTransform="translate(605.24)" gradientUnits="userSpaceOnUse">
      <stop offset="0.01" stop-color="#eef8fd"/>
      <stop offset="1" stop-color="#e3f4fc"/>
    </linearGradient>
    <linearGradient id="linear-gradient-15" x1="-450.75" y1="116.17" x2="-454.1" y2="157.44" gradientTransform="translate(605.24)" gradientUnits="userSpaceOnUse">
      <stop offset="0" stop-color="#e6f5fc"/>
      <stop offset="1" stop-color="#e6ebf6"/>
    </linearGradient>
    <linearGradient id="linear-gradient-16" x1="-450.75" y1="122.46" x2="-454.1" y2="163.76" gradientTransform="translate(605.24)" gradientUnits="userSpaceOnUse">
      <stop offset="0" stop-color="#ebf7fd"/>
      <stop offset="1" stop-color="#e6ebf6"/>
    </linearGradient>
    <linearGradient id="linear-gradient-17" x1="84.94" y1="188.88" x2="83.78" y2="72.62" xlink:href="#linear-gradient-4"/>
    <linearGradient id="linear-gradient-18" x1="85.18" y1="187.85" x2="84.01" y2="71.56" xlink:href="#linear-gradient-4"/>
    <linearGradient id="linear-gradient-19" x1="85.24" y1="187.82" x2="84.07" y2="71.58" xlink:href="#linear-gradient-4"/>
    <linearGradient id="linear-gradient-20" x1="71.89" y1="159.74" x2="73.73" y2="113.38" xlink:href="#linear-gradient-5"/>
    <linearGradient id="linear-gradient-21" x1="19.06" y1="185.64" x2="22.09" y2="136.06" xlink:href="#linear-gradient-3"/>
    <linearGradient id="linear-gradient-22" x1="16.21" y1="179.09" x2="17.12" y2="136.08" gradientUnits="userSpaceOnUse">
      <stop offset="0.01" stop-color="#fffcec"/>
      <stop offset="1" stop-color="#e3f4fc"/>
    </linearGradient>
    <linearGradient id="linear-gradient-23" x1="24.54" y1="179.25" x2="25.46" y2="136.24" xlink:href="#linear-gradient-22"/>
    <linearGradient id="linear-gradient-24" x1="142.62" y1="167.98" x2="142.37" y2="127.5" xlink:href="#linear-gradient-2"/>
    <linearGradient id="linear-gradient-25" x1="144.09" y1="136.49" x2="144.18" y2="152.7" gradientUnits="userSpaceOnUse">
      <stop offset="0.01" stop-color="#fffdee"/>
      <stop offset="0.17" stop-color="#fafbf1"/>
      <stop offset="1" stop-color="#e6f5fc"/>
    </linearGradient>
    <linearGradient id="linear-gradient-26" x1="140.82" y1="139.7" x2="140.91" y2="157.21" xlink:href="#linear-gradient-25"/>
    <linearGradient id="linear-gradient-27" x1="137.38" y1="139.72" x2="137.47" y2="157.22" xlink:href="#linear-gradient-25"/>
    <linearGradient id="linear-gradient-28" x1="147.7" y1="139.66" x2="147.79" y2="157.17" xlink:href="#linear-gradient-25"/>
    <linearGradient id="linear-gradient-29" x1="144.26" y1="139.68" x2="144.35" y2="157.19" xlink:href="#linear-gradient-25"/>
    <linearGradient id="linear-gradient-30" x1="140.84" y1="141.22" x2="140.89" y2="161.39" xlink:href="#linear-gradient-25"/>
    <linearGradient id="linear-gradient-31" x1="137.4" y1="141.24" x2="137.45" y2="161.39" xlink:href="#linear-gradient-25"/>
    <linearGradient id="linear-gradient-32" x1="147.72" y1="141.21" x2="147.76" y2="161.37" xlink:href="#linear-gradient-25"/>
    <linearGradient id="linear-gradient-33" x1="97.48" y1="182.99" x2="100.49" y2="92.73" xlink:href="#linear-gradient-3"/>
    <linearGradient id="linear-gradient-34" x1="107.1" y1="126.06" x2="106.84" y2="147.79" gradientUnits="userSpaceOnUse">
      <stop offset="0.01" stop-color="#fffdee"/>
      <stop offset="0.07" stop-color="#fdfcef"/>
      <stop offset="1" stop-color="#e9f6fd"/>
    </linearGradient>
    <linearGradient id="linear-gradient-35" x1="100.38" y1="125.98" x2="100.13" y2="147.71" xlink:href="#linear-gradient-34"/>
    <linearGradient id="linear-gradient-36" x1="97.03" y1="125.94" x2="96.77" y2="147.67" xlink:href="#linear-gradient-34"/>
    <linearGradient id="linear-gradient-37" x1="90.31" y1="125.86" x2="90.05" y2="147.59" xlink:href="#linear-gradient-34"/>
    <linearGradient id="linear-gradient-38" x1="107.04" y1="129.29" x2="106.89" y2="157.56" xlink:href="#linear-gradient-34"/>
    <linearGradient id="linear-gradient-39" x1="96.97" y1="129.23" x2="96.81" y2="157.51" xlink:href="#linear-gradient-34"/>
    <linearGradient id="linear-gradient-40" x1="93.61" y1="129.21" x2="93.46" y2="157.49" xlink:href="#linear-gradient-34"/>
    <linearGradient id="linear-gradient-41" x1="90.25" y1="129.19" x2="90.1" y2="157.47" xlink:href="#linear-gradient-34"/>
    <linearGradient id="linear-gradient-42" x1="103.71" y1="129.27" x2="103.56" y2="157.54" xlink:href="#linear-gradient-34"/>
    <linearGradient id="linear-gradient-43" x1="100.35" y1="129.26" x2="100.2" y2="157.52" xlink:href="#linear-gradient-34"/>
    <linearGradient id="linear-gradient-44" x1="93.64" y1="129.22" x2="93.48" y2="157.49" xlink:href="#linear-gradient-34"/>
    <linearGradient id="linear-gradient-45" x1="166.15" y1="167.72" x2="166.15" y2="128.76" xlink:href="#linear-gradient-3"/>
    <linearGradient id="linear-gradient-46" x1="165.7" y1="167.64" x2="166.46" y2="139.94" gradientUnits="userSpaceOnUse">
      <stop offset="0.01" stop-color="#fffcec"/>
      <stop offset="1" stop-color="#e9f6fd"/>
    </linearGradient>
    <linearGradient id="New_Gradient_Swatch_14" data-name="New Gradient Swatch 14" x1="304.02" y1="208.1" x2="306.26" y2="173.24" gradientTransform="matrix(1, 0.04, -0.04, 1, -1.41, -41.27)" gradientUnits="userSpaceOnUse">
      <stop offset="0" stop-color="#e2eece"/>
      <stop offset="0.63" stop-color="#b7dcb3"/>
      <stop offset="1" stop-color="#a3d4a6"/>
    </linearGradient>
    <linearGradient id="linear-gradient-47" x1="119.46" y1="169.31" x2="121.35" y2="136.63" gradientTransform="translate(0.36 9.73) rotate(-0.68)" gradientUnits="userSpaceOnUse">
      <stop offset="0" stop-color="#e9f2dd"/>
      <stop offset="0.64" stop-color="#bcdfbd"/>
      <stop offset="1" stop-color="#a8d6af"/>
    </linearGradient>
    <linearGradient id="linear-gradient-48" x1="6320.78" y1="171.41" x2="6322.52" y2="141.21" gradientTransform="matrix(-1, 0.01, 0.01, 1, 6545.52, -67.94)" gradientUnits="userSpaceOnUse">
      <stop offset="0" stop-color="#fffce2"/>
      <stop offset="0.04" stop-color="#fcfbe1"/>
      <stop offset="0.68" stop-color="#c7e6d5"/>
      <stop offset="1" stop-color="#b3ded0"/>
    </linearGradient>
    <linearGradient id="linear-gradient-49" x1="530.15" y1="176.14" x2="532.91" y2="151.43" gradientTransform="matrix(1.12, -0.01, -0.04, 1.01, -410.12, 4.22)" xlink:href="#linear-gradient-47"/>
    <clipPath id="clip-path">
      <rect class="cls-1" x="-161.03" y="94.9" width="580.06" height="192.87"/>
    </clipPath>
    <linearGradient id="New_Gradient_Swatch_5" data-name="New Gradient Swatch 5" x1="177.99" y1="145.61" x2="177.99" y2="282.7" gradientUnits="userSpaceOnUse">
      <stop offset="0" stop-color="#ffea85"/>
      <stop offset="0.15" stop-color="#d0d768"/>
      <stop offset="0.31" stop-color="#9ec34b"/>
      <stop offset="0.4" stop-color="#8bbb3f"/>
      <stop offset="1" stop-color="#00994e"/>
    </linearGradient>
    <linearGradient id="New_Gradient_Swatch_2" data-name="New Gradient Swatch 2" x1="6438.32" y1="16.77" x2="5221.96" y2="187.72" gradientTransform="matrix(-1, 0, 0, 1, 6314.02, 0)" gradientUnits="userSpaceOnUse">
      <stop offset="0" stop-color="#fffdee"/>
      <stop offset="0.53" stop-color="#f1f9fd"/>
      <stop offset="0.69" stop-color="#e3f4fc"/>
      <stop offset="1" stop-color="#bfe7fa"/>
      <stop offset="1" stop-color="#bee7fa"/>
    </linearGradient>
    <linearGradient id="linear-gradient-50" x1="2690.93" y1="364.51" x2="2754.13" y2="353.37" gradientTransform="matrix(0.99, 0.12, -0.12, 0.99, -2271.41, -549.46)" gradientUnits="userSpaceOnUse">
      <stop offset="0" stop-color="#93c961"/>
      <stop offset="1" stop-color="#64b44c"/>
    </linearGradient>
    <linearGradient id="linear-gradient-51" x1="2699.92" y1="354.49" x2="2756.25" y2="354.49" gradientTransform="matrix(0.99, 0.12, -0.12, 0.99, -2271.41, -549.46)" gradientUnits="userSpaceOnUse">
      <stop offset="0" stop-color="#bfda79"/>
      <stop offset="1" stop-color="#86c55f"/>
    </linearGradient>
    <linearGradient id="linear-gradient-52" x1="396.44" y1="158.71" x2="400" y2="98.92" gradientUnits="userSpaceOnUse">
      <stop offset="0" stop-color="#9cc459"/>
      <stop offset="1" stop-color="#59b254"/>
    </linearGradient>
    <clipPath id="clip-path-2">
      <rect class="cls-1" x="-3.96" y="-34.45" width="405.49" height="69.5"/>
    </clipPath>
    <clipPath id="clip-path-3">
      <rect class="cls-1" x="-3.96" y="-20.14" width="404.66" height="88.4"/>
    </clipPath>
    <linearGradient id="New_Gradient_Swatch_13" data-name="New Gradient Swatch 13" x1="49.19" y1="195.21" x2="53.85" y2="179.87" gradientTransform="matrix(0.99, -0.14, 0.14, 0.99, -6.71, 15.43)" gradientUnits="userSpaceOnUse">
      <stop offset="0" stop-color="#bad875"/>
      <stop offset="1" stop-color="#85c44b"/>
    </linearGradient>
    <linearGradient id="linear-gradient-53" x1="44.12" y1="210.36" x2="46.02" y2="193.29" gradientTransform="translate(36.86 -17.41) rotate(10.32)" xlink:href="#New_Gradient_Swatch_13"/>
    <linearGradient id="New_Gradient_Swatch_12" data-name="New Gradient Swatch 12" x1="5414.61" y1="321.1" x2="5471.47" y2="311.08" gradientTransform="matrix(-0.97, -0.24, -0.24, 0.97, 5393.77, 1183)" gradientUnits="userSpaceOnUse">
      <stop offset="0" stop-color="#9cc453"/>
      <stop offset="1" stop-color="#54af47"/>
    </linearGradient>
    <linearGradient id="linear-gradient-54" x1="5419.39" y1="314.73" x2="5470.52" y2="314.73" gradientTransform="matrix(-0.97, -0.24, -0.24, 0.97, 5393.77, 1183)" gradientUnits="userSpaceOnUse">
      <stop offset="0.01" stop-color="#bad87e"/>
      <stop offset="1" stop-color="#88c65e"/>
    </linearGradient>
    <linearGradient id="linear-gradient-55" x1="4907.99" y1="189.14" x2="4890.1" y2="214.86" gradientTransform="matrix(-0.98, -0.19, -0.19, 0.98, 4855.52, 912.63)" gradientUnits="userSpaceOnUse">
      <stop offset="0" stop-color="#8abf59"/>
      <stop offset="1" stop-color="#63b453"/>
    </linearGradient>
    <linearGradient id="linear-gradient-56" x1="4879.93" y1="203.67" x2="4886.04" y2="172.1" gradientTransform="matrix(-0.98, -0.19, -0.19, 0.98, 4855.52, 912.63)" gradientUnits="userSpaceOnUse">
      <stop offset="0" stop-color="#8bbe55"/>
      <stop offset="1" stop-color="#64b44f"/>
    </linearGradient>
    <linearGradient id="New_Gradient_Swatch_5-2" x1="1931.25" y1="196.98" x2="1931.25" y2="268.55" gradientTransform="matrix(-1, 0, 0, 1, 2136.25, 0)" xlink:href="#New_Gradient_Swatch_5"/>
    <linearGradient id="linear-gradient-57" x1="2949.43" y1="270.66" x2="3051.86" y2="412.77" gradientTransform="matrix(1.27, 0.16, -0.08, 0.68, -3553.46, -460.64)" gradientUnits="userSpaceOnUse">
      <stop offset="0" stop-color="#f4e795"/>
      <stop offset="0.58" stop-color="#dbd274"/>
      <stop offset="1" stop-color="#cdc661"/>
    </linearGradient>
    <linearGradient id="linear-gradient-58" x1="306.38" y1="185.04" x2="305.75" y2="197.62" gradientUnits="userSpaceOnUse">
      <stop offset="0" stop-color="#a4c84f"/>
      <stop offset="1" stop-color="#7ab542"/>
    </linearGradient>
    <linearGradient id="linear-gradient-59" x1="-3593.41" y1="-70.53" x2="-3576.74" y2="-101.65" gradientTransform="matrix(1, -0.03, 0.03, 1, 3888.48, 157.2)" gradientUnits="userSpaceOnUse">
      <stop offset="0" stop-color="#8d7e6d"/>
      <stop offset="1" stop-color="#a98f7b"/>
    </linearGradient>
    <linearGradient id="New_Gradient_Swatch_4" data-name="New Gradient Swatch 4" x1="1237.64" y1="18.56" x2="1321.14" y2="18.56" gradientTransform="translate(-976.18 165.54) rotate(-3.06)" gradientUnits="userSpaceOnUse">
      <stop offset="0" stop-color="#93c83d"/>
      <stop offset="0.99" stop-color="#11a24b"/>
    </linearGradient>
    <linearGradient id="New_Gradient_Swatch_3" data-name="New Gradient Swatch 3" x1="1230.67" y1="15.1" x2="1331.78" y2="15.1" gradientTransform="translate(-976.18 165.54) rotate(-3.06)" gradientUnits="userSpaceOnUse">
      <stop offset="0" stop-color="#bbd763"/>
      <stop offset="1" stop-color="#71be4e"/>
    </linearGradient>
    <linearGradient id="linear-gradient-60" x1="1303.53" y1="3.26" x2="1304.53" y2="50.74" gradientTransform="translate(-976.18 165.54) rotate(-3.06)" gradientUnits="userSpaceOnUse">
      <stop offset="0" stop-color="#79c043"/>
      <stop offset="1" stop-color="#5fa947"/>
    </linearGradient>
    <linearGradient id="linear-gradient-61" x1="1261.19" y1="18.27" x2="1294.87" y2="18.27" gradientTransform="translate(-976.18 165.54) rotate(-3.06)" gradientUnits="userSpaceOnUse">
      <stop offset="0" stop-color="#86c440"/>
      <stop offset="1" stop-color="#66a649"/>
    </linearGradient>
    <linearGradient id="linear-gradient-62" x1="1238.67" y1="36.14" x2="1260.98" y2="36.14" gradientTransform="translate(-976.18 165.54) rotate(-3.06)" gradientUnits="userSpaceOnUse">
      <stop offset="0" stop-color="#95c94d"/>
      <stop offset="1" stop-color="#77b13f"/>
    </linearGradient>
  </defs>
  <rect id="sky" class="cls-2" y="-60" width="400" height="297.73"/>
  <g id="city">
    <path class="cls-3" d="M363.29,124.53s-2.32-.41-3.21-7.07-1.58-13.26-1.58-13.26l-.08,1.49s-.69,5.11-1.57,11.77-3.22,7.07-3.22,7.07-.16.6.33.69c.29,0,.08,20,.08,20H363s-.31-19.94,0-20C363.42,125.13,363.29,124.53,363.29,124.53Zm-4.26-3v2.38h-1.17v-2.37s-.31-.33-.32-.54a2.05,2.05,0,0,0,.4-.82l.49-1.7h0l.5,1.69a2.09,2.09,0,0,0,.39.83C359.34,121.18,359,121.51,359,121.51Z"/>
    <g>
      <path class="cls-4" d="M302.2,144.37v19.14h43.22V144.37Zm4.12,6.6h-1V147.8h1Zm4.28,0h-1V147.8h1Zm9.44,0h-1V147.8h1Zm4.27,0h-1V147.8h1Zm4.28,0h-1V147.8h1Zm9.44,0h-1V147.8h1Zm4.27,0h-1V147.8h1Z"/>
      <polygon class="cls-5" points="299.31 143.99 348.37 143.99 343.27 138.67 304.29 138.67 299.31 143.99"/>
      <path class="cls-6" d="M335.24,135.88c-2.23,0-6.6-2.81-8.12-5.51-1-1.7-2.43-.36-3.34-4.11-.8,3.75-2.32,2.41-3.28,4.11-2.39,4.25-5,5.51-8.12,5.51s-4.59,5.49-4.59,5.49h32S338.33,135.88,335.24,135.88Zm-11.06,1.8h-.74l.07-2s-.53-1.31-.14-1.85a4.67,4.67,0,0,0,.41-.62h.06a2.4,2.4,0,0,0,.41.62c.41.52-.14,1.85-.14,1.85Z"/>
    </g>
    <g>
      <polygon class="cls-7" points="129.89 166.34 101.25 166.34 101.25 105.54 115.51 89.94 129.89 105.54 129.89 166.34"/>
      <g>
        <rect class="cls-8" x="102.69" y="137.67" width="25.45" height="0.28"/>
        <rect class="cls-8" x="102.69" y="131.39" width="25.45" height="0.28"/>
        <rect class="cls-8" x="102.69" y="125.13" width="25.45" height="0.28"/>
        <rect class="cls-8" x="102.69" y="118.87" width="25.45" height="0.29"/>
        <rect class="cls-8" x="102.69" y="112.59" width="25.45" height="0.28"/>
        <rect class="cls-8" x="102.69" y="106.45" width="25.45" height="0.29"/>
        <rect class="cls-8" x="125" y="106.47" width="0.37" height="37.61"/>
        <rect class="cls-8" x="120.11" y="106.47" width="0.37" height="37.61"/>
        <rect class="cls-8" x="115.23" y="106.47" width="0.37" height="37.61"/>
        <rect class="cls-8" x="110.34" y="106.47" width="0.37" height="37.61"/>
        <rect class="cls-8" x="105.45" y="106.47" width="0.37" height="37.61"/>
      </g>
    </g>
    <g>
      <polygon class="cls-9" points="43.92 170.51 60.88 170.51 60.96 168.24 49.38 150.9 43.92 150.84 43.92 170.51"/>
      <path class="cls-10" d="M35.45,144.65l-1.66-9.46H30.07L30,118.5a1.89,1.89,0,0,0-.9-2.18C27,115,26.82,100.07,26.82,100.07H26.7s-.17,15.18-2.27,16.25a1.72,1.72,0,0,0-.89,2.18l-.06,16.69H17.26l-1.53,10.17-2,0v36.26H45v-37Zm-8.19-24.8v2.06h-1v-2.06s-.27-.29-.28-.47a1.83,1.83,0,0,0,.34-.71l.43-1.47h0l.43,1.46a1.79,1.79,0,0,0,.34.72C27.53,119.56,27.26,119.85,27.26,119.85Z"/>
      <path class="cls-11" d="M-2.7,169.24l.1-30.6s-1.77-.73-1.27-1,.06-7.35,6.67-11.22c.58-2.14.06-4.12.44-4.87s1.14-3.55,2.14-3.5h.06c1,0,1.77,2.75,2.14,3.5s-.14,2.73.44,4.87c6.61,3.87,6.17,11,6.67,11.22s-1.25,1-1.25,1l.05,30.59Z"/>
    </g>
    <g>
      <rect class="cls-12" x="168.54" y="142.15" width="11.21" height="23.29"/>
      <rect class="cls-13" x="212.91" y="151.06" width="11.84" height="13.06"/>
      <rect class="cls-14" x="192.72" y="151.92" width="9.2" height="14.27"/>
      <rect class="cls-15" x="247.3" y="161.94" width="22.83" height="6.54"/>
      <rect class="cls-16" x="276.29" y="153.12" width="13.16" height="16.24"/>
    </g>
    <g>
      <path class="cls-17" d="M144.68,119.51V166h22.81v-54.1H150s-4.35-.31-4.94,1.32S144.68,119.51,144.68,119.51Z"/>
      <path class="cls-18" d="M169.25,112.78c.05,1.62,0,54.19,0,54.19h-5.64V109.63s1.26,0,3,0S169.2,111.16,169.25,112.78Z"/>
      <rect class="cls-19" x="146.35" y="116.28" width="15.07" height="2.7"/>
      <rect class="cls-20" x="146.35" y="122.31" width="15.07" height="2.7"/>
      <rect class="cls-21" x="146.35" y="128.6" width="15.07" height="2.71"/>
    </g>
    <g>
      <rect class="cls-22" x="75.75" y="120.93" width="17.48" height="45.95"/>
      <rect class="cls-23" x="78.95" y="115.21" width="11.07" height="8.87"/>
      <rect class="cls-24" x="81.7" y="110.14" width="5.58" height="6.79"/>
    </g>
    <polygon class="cls-25" points="79.57 173.48 64.26 173.48 64.26 144.85 69.11 137.23 75.1 137.23 79.57 144.85 79.57 173.48"/>
    <g>
      <path class="cls-26" d="M32.24,173.93H9.55V154.15c-.34-.08-2.61-.12-3.18-.18a6.93,6.93,0,0,1,2.87-4c2.16-1.12,11.63-12.66,11.63-12.66S30.32,149.27,32.51,150c1.45.48,2.41,2.07,3.1,4.09-.47,0-3,0-3.37.1Z"/>
      <path class="cls-27" d="M17.76,159.43a12.67,12.67,0,0,0-.76-3.84.39.39,0,0,0-.37-.22.4.4,0,0,0-.38.22,12.67,12.67,0,0,0-.76,3.84Z"/>
      <path class="cls-28" d="M26.1,159.43a12.67,12.67,0,0,0-.76-3.84.39.39,0,0,0-.37-.22.4.4,0,0,0-.38.22,12.77,12.77,0,0,0-.77,3.84Z"/>
    </g>
    <g>
      <polygon class="cls-29" points="149.52 143.62 152.89 147.4 152.89 173.66 132.26 173.66 132.26 147.4 135.62 143.64 138.37 138.39 146.78 138.39 149.52 143.62"/>
      <g>
        <rect class="cls-30" x="143.64" y="142.23" width="0.97" height="1.87"/>
        <rect class="cls-31" x="140.38" y="146.7" width="0.97" height="1.87"/>
        <rect class="cls-32" x="136.94" y="146.7" width="0.97" height="1.87"/>
        <rect class="cls-33" x="147.26" y="146.7" width="0.97" height="1.87"/>
        <rect class="cls-34" x="143.82" y="146.7" width="0.97" height="1.87"/>
        <rect class="cls-35" x="140.38" y="150.75" width="0.97" height="1.87"/>
        <rect class="cls-36" x="136.94" y="150.75" width="0.97" height="1.87"/>
        <rect class="cls-37" x="147.26" y="150.75" width="0.97" height="1.87"/>
      </g>
    </g>
    <g>
      <path class="cls-38" d="M110.34,128.72s-3.81-2.69-12.86,1.62c-7.45,3.55-10.63,1.9-10.63,1.9V167h23.49Z"/>
      <g>
        <rect class="cls-39" x="106.42" y="135.09" width="1.11" height="2.66"/>
        <rect class="cls-40" x="99.7" y="135.09" width="1.11" height="2.66"/>
        <rect class="cls-41" x="96.35" y="135.09" width="1.11" height="2.66"/>
        <rect class="cls-42" x="89.63" y="135.09" width="1.11" height="2.66"/>
        <rect class="cls-43" x="106.42" y="140.15" width="1.11" height="2.66"/>
        <rect class="cls-44" x="96.35" y="140.15" width="1.11" height="2.66"/>
        <rect class="cls-45" x="92.99" y="140.15" width="1.11" height="2.66"/>
        <rect class="cls-46" x="89.63" y="140.15" width="1.11" height="2.66"/>
        <rect class="cls-47" x="103.06" y="145.21" width="1.11" height="2.66"/>
        <rect class="cls-48" x="99.7" y="145.21" width="1.11" height="2.66"/>
        <rect class="cls-49" x="92.99" y="145.21" width="1.11" height="2.66"/>
      </g>
    </g>
    <g>
      <path class="cls-50" d="M172.51,165.82H159.68V156c-.19,0-1.47-.06-1.8-.09.27-1.12.47-2.45,1.21-2.81s4.13-3.65,5.79-5.37c.35-.37.83-.27,1.25-.27s.81-.12,1.17.27c1.65,1.77,5,5.08,5.82,5.35s1.07,1.71,1.3,2.89c-.27,0-1.71,0-1.91,0Z"/>
      <path class="cls-51" d="M166.84,153.32a4.43,4.43,0,0,0-.5-1.8.27.27,0,0,0-.24-.1.28.28,0,0,0-.25.1,4.43,4.43,0,0,0-.5,1.8Z"/>
    </g>
    <g>
      <path class="cls-52" d="M325.1,171.91a7.25,7.25,0,0,0-3-8.07c-9-.72.48-3.09-8.92-5-1.63-2.15.61-4.7-3.75-4.28-2.08.2-4.89,1.78-4.9,4.58-1.74-4.49-6.82-2.07-7.56,1.07-1.93,0-3.81,1.11-4.13,2.07-.39-2.44-4.9.27-6,1.4,2.54-3.2-2.65-4.51-5.1-3.84.79-1.59-1.28-3.1-3.39-2.09-3.27,1.58-2.26,3-3.61,4.31-1.86-.21-7.84,3.18-8.85,7.15Z"/>
      <path class="cls-53" d="M93.88,168.92c.23-2.2,8.62-8.8,10.77-6.1.61-4.36,6.82-5.64,7.72-3a2.83,2.83,0,0,1,4.08,2c2.58-3.73,3.37-1.82,4.39-4.15a3.61,3.61,0,0,1,5.39-1.4c1.52-4,5.72.07,4.65,3.84,1.43-1,3.88-2.33,4.05-1.17.23,1.62,1.72-1.83,4.45-1.85,6.28-.06,6.32,4.73,4.21,4.95,1.86,1.78,9.72,4,6.09,6.32C151.3,170.13,93.88,168.92,93.88,168.92Z"/>
      <path class="cls-54" d="M252.92,169.31c-.27-2.1-10.44-7.49-12.43-4.87-.68-4.14-6.65-5.22-7.45-2.65a2.7,2.7,0,0,0-3.85,2c-2.55-3.51-3.26-1.66-4.29-3.87a3.45,3.45,0,0,0-5.19-1.21c-1.54-3.75-5.46.19-4.35,3.78-1.39-.91-3.76-2.15-3.89-1-.19,1.56-2.25-1.77-4.87-1.74-6,.09-5.9,4.85-3.89,5-1.73,1.74-3.64,4.86-.11,7C201.09,173.45,252.92,169.31,252.92,169.31Z"/>
      <path class="cls-55" d="M205.31,169.65c-1.29-1.51-3.35-5.7-7.5-6.18s-.54-4.21-8.13-5.25c-1.31-1.51.49-3.43-3-3-1.69.21-4.58,1.8-4.59,3.83-1.4-3.19-6,0-6.61,2.26-1.55,0-3.08.92-3.33,1.63-.32-1.75-6.66.39-7.56,1.24,2.06-2.39-2.13-3.17-4.12-2.6.64-1.18-1-2.21-2.74-1.4-2.64,1.25-1.82,2.26-2.92,3.23-1.5-.09-3.64,2.53-4.45,5.44Z"/>
    </g>
  </g>
  <g id="hill3">
    <g class="cls-56">
      <path class="cls-57" d="M413.25,238.89c-.7-12.25-2.25-24.29-.71-36.54,1.49-11.8,4.11-23.49,4.2-35.43a3.2,3.2,0,0,1,2.29-3.16c-.93-22.83,2.47-.88,3-23.76-27.73-1.21-170,10-206,18s-110.57,11.73-172,4c0,0-134.76-23.37-196.44,4.34L-161,248.56l574,39.22q.74-7.84,1.41-15.69c-.19-11.08-.53-22.14-1.17-33.2"/>
    </g>
  </g>
  <path class="Graphic-Style" d="M430,156c28,11-3.92,106.82-1.48,128.79-21.92,3.56-452.37-8-460-1.56-18-.18-36.12-.4-54.15-.56,2.66-23.87-1.35-52.36,5.76-74.1,53.89-21.19,113.94-14.88,170.35-10.06C155.51,204,175.34,189.6,235,171,281.36,151.65,372,147,430,156Z"/>
  <path class="cls-58" d="M473,284c-146.44-2.92-358,4.08-504.44-.77,74.9-34.2,166.33-.68,244.31-30.51C260.28,236.25,300.78,203.86,351,195,413.7,183.93,472.65,241.45,473,284Z"/>
  <rect class="cls-1" x="-85.69" y="119.03" width="517.57" height="167.16"/>
  <path class="cls-1" d="M430.66,284.83c-36.36-.44-61.15-1.24-97.51-1.69-61-.75-123.34,3.05-184.4,2.3l-234.44-2.89q1.09-22.24,2.17-44.47.55-11.19,1.1-22.38.15-3,.29-6a87.94,87.94,0,0,1,8.65-3.88c56.43-21.94,163.89-7.27,163.89-7.27,43,3,85.71-13.31,102.1-20.44,4.49-1.95,7-3.22,7-3.22,68.53-32.55,128.24-45.74,168.51-51C402,119.49,426,119,426,119q2.12,18.9,4.24,37.79c1.63,14.56-.61,48.6-.61,48.6s-2.22,50.46,1,79.41"/>
  <path id="clouds" class="cls-59" d="M399.59,96.11c-59.3,2.64-123.79.42-220-1.75C149.69,93.69,74,103,.41,101.42V64.5C37,69.28,19,61.82,47.86,59,53,42.12,76.2,48.36,79.22,56.69c5.16-4.67,13.09-4,20.22-.66,1.17.55,2.41-2.1,3.84-2.15,2.38-.08,8.75,2.53,10.43,2.11,5.2-1.26,2.67-10.62,7.1-12s10.4,1.14,11.94,3.91c1.35-3.16,5.41-1.74,7.45.58-.54-6.2-.38-12.26,4.68-17.53,4.52-4.7,11.79-8.09,14.09,3.29,3.1-7.17,11.7,1.08,9.8,5.88,3.93-2.78,6.48,2.36,9.81,3.47,1.81.6,10-3.49,8.72,2.73,4.4-2.46,1.1-7.7,6.63-7.95-4.68-5.15,5.12-18.25,13-13,2.64-5.22,13.14-6.9,13.21.66,4.48,0,12.86,6.26,13.78,10.62,2-5.16,17.71-11.35,19.64-5.32,7.54-20,20.52-16,23.3-12.71,2.15-5.86,7.57-6.07,5.63-9.52,3.23-4.68,18.28,1.67,19.87,8.79,12.64-9.49,10.43,5.47,22.56,6.67,3.64-.29,11,1.56,18.06,14.72,1.93-6.13,13.23-13.8,24,2,17.24-4.58,18.63,7.44,32.64,12.11Z"/>
  <g>
    <path class="cls-60" d="M35.21,42.44s-7.59-2.47-9.82-.28c2.28-.5,3.54-.65,9,1.93,1.16.55,2.32-.9,2.69-1.77.71-1.74-1-3.42,3.79-4.18C39.19,37.43,36.3,38.63,35.21,42.44Z"/>
    <path class="cls-61" d="M59.91,77c2.59-3,5.23-1.33,8.94-2.39C65,77.65,62.05,76.45,61,77.64c-.88,1-2.42,2.64-3.19,1-1.68-3.46.55-5.52-4.41-7.39C53.72,70.12,60.11,72.44,59.91,77Z"/>
  </g>
  <g>
    <path class="cls-62" d="M418.47,156.26c-11.79,6.39-61.55,2.45-61.55,2.45-2.16-2.59-3.6-9.64,1.57-9-.54-6.84,7-8.72,9-5.81.14-1.32,3.27.25,4.38,2.33-1.41-6.67,2.16-5.32.67-8.86-1.29-3.06,1.33-5.94,4.86-6.7-2.22-5.4,5.34-5,8.36.13.41-2.53,1.45-6.53,2.89-5.46,2,1.48.87-.37,3.51-3.39,3.88-4.43,10.62,1.13,8.68,3.55,3.85,0,8-2.63,8.22,2.8,2.3,3.29,7.47,1.58,5.85,8.78.27-.14,1.77-.39,3.6,1.92Z"/>
    <path class="cls-63" d="M418.47,156.14s-44.88-.9-53.87-1.89C360,153,364,142.47,366,141.53c3.46-1.63,2.6,3.54,6.91.73,4.73,1.37,5,6.3,6.33,7.72-1.48-3.95-2.28-9.37.64-9.22,2.57-2.26-1.81-5.2-1-6.16,1.65-1.85,4.27-2.19,6.13.5,2.5-3.58,5.07-1.91,5.92-.22,1.43-3,1.95,1,4.58-1-2-3.15-1.93-5.13.86-7.12,3.23-2.29-3.25-7.86,2.73-7.86,2.45-3.27,5.32-1.78,6,2.55,2.57-.7,6.76.1,4.07,5.68,3.69,2.3,4.95,4.59,2.65,7.79,4.36,1.29.11,8.92,6.66,9.89Z"/>
    <path class="cls-64" d="M403.43,126.51c-1.33,3-2.6.68-4.23,4.72-1.24-4.17-5,.72-6.07,2.55-1.66-3.9-9.43,5.68-7.6,5.24,4.18-1,5.29-1.73,6.3-.21,1.86,2.79,6.29-.41,8,1.71.58.72-1.65,4.25,3.44,2.73-.3.05,2.64,2.23,5.24-.28,3.9-3.77-1.31-7.84-1.19-8.82,2.82-3.26.77-6.86-.93-6.13C406.63,126.81,404.26,124.63,403.43,126.51Z"/>
  </g>
  <g class="cls-65">
    <g class="cls-66">
      <path class="cls-8" d="M400.7-34.45S323.58,17.07-2.3.85L-4,31.38s233,25.76,405.49-59.16Z"/>
    </g>
    <g class="cls-67">
      <path class="cls-8" d="M400.7-20.14S206.66,91.48-2.3,37.1L-4,67.63S225.73,81,400.7-15.37Z"/>
    </g>
  </g>
  <g>
    <path class="cls-68" d="M49.53,200.85c-1.06-2.88,1.26-3.82,2.28-5.39-2.29-3,1.76-3.83,1.17-5.52-.88-2.56,5.11.54,5.11.54,2.91-3.85,4.39.83,4.85,1.75,3.4-3,4.79-1.41,5.82.6,2.19-1.83,4.33,2.69,4.91,2.43,0-3.18,2.34-2.8,3.2-2.66-.39-2.14,4.48-2.43,4-1.62-.76,1.93,1.36,1.85,1,3.42,4.85-.28,2.18,3.16,8.86,3.41,0,0-20.28,3.94-41.89,6.68A2.22,2.22,0,0,1,49.53,200.85Z"/>
    <path class="cls-69" d="M56.54,200.12c-13.11.22-27-1.44-28.72-2.46.27-1,.43-3.37,4.18-5.4-1.25-2.12,1.72-3.24,1.87-3.54-.86-1.17.48-3.31,2.53-1.78,2,1.3,3.33-4.26,4.67-1.55.49-.32,1.85-1.78,3.44-.55-.32,1.6.3,2,1.26,3.83,1.81-1,3.48-1.25,4.15.06-.83,1.9,1.93,2.21,1.52,4.38C56,193.94,56.54,200.12,56.54,200.12Z"/>
  </g>
  <g>
    <path class="cls-70" d="M2.07,209.36l50.74,8.87c2.79-1.56,2.42-10.56-2.36-11.73,5.42-3.27-1.17-6.29-3.87-4.38.31-1.21,1.29-3.76-2.42-2.8,3.49-5.41-.12-5.42,2.4-8,2.16-2.27.82-5.69-2.05-7.55,3.78-4-3-6.21-7.43-2.69.49-2.38.91-6.27-.72-5.8-2.28.63,1.44-3.23-.06-6.71-3.46-8-9.44-4.89-8.54-2.1-3.4-1.33-7.27-.45-9.27,4.29-3.2-1.05-7.79-.22-8.77,6.69-.26-.29-1.39.37-1.71.54Z"/>
    <path class="cls-71" d="M1.35,213.16l50.08,3.33c.56-2.6-.55-7.12-4-6,3.81-1.84,3.92-3.11,3.3-6.56.77-2.11,2.57-4.13.88-5.35-1.92-1.37-5.3,1.69-6.8,2.82-2.48.54-4.57.2-5.48,2.14-2.15-.53-4.38-2.41-2.92-3.39,2.2-1.46,1.81-7-1.14-5.41,1.2-5.49,2.73-3.16,5-6.22,2.82-3.87-1.39-5.22-3.94-3.47,1.32-2.23-4-1.24-5.35,0-.25-3.13-3.79-2-5.43-4.67,2.82-2.12,5.21-5.49,3.41-8.19-2.08-3.11,3-4,.27-7.37-3.15.64-.2-2-4.31-2.24-1.06-3.7-5.72-.84-5.25,3.1-3.13-.77-4.34,2-2.23,3.8-3.06,1-5.05,3.55-4.09,7.15-4.52-.35,1.22,8-6.06,5.52Z"/>
    <g>
      <path class="cls-72" d="M5.23,192.63C11,190,9.33,197.33,7,199c-.35,2.85,9.19.36,6,8-1,.16-3.61,0-4-.43a10.62,10.62,0,0,1-7.09,3.62Z"/>
      <path class="cls-73" d="M31.7,187.38c-2.19,2.22-2.53-.28-5.33,2.75.31-4.1-4.63-1-6.22.22-.15-4-4.15-.72-5.52.65-1.5.12-3.68.91-3.69,2.68,0,2.26,5,3.15,6.75,3.32s5.32-.89,6.1,1.54c.27.84-2.89,3.2,2.12,3.57-.29-.05,1.58,2.86,4.72,1.51,4.72-2,1.47-7.37,1.91-8.19,3.59-1.93,3-5.8,1.24-5.73C34.43,188.73,33.06,186,31.7,187.38Z"/>
    </g>
  </g>
  <g>
    <path class="cls-74" d="M409.36,234c-26.31-7-53.21-13-83.39-18.35C263.21,204.49,99.58,190.43.64,209.48V270H409.36Z"/>
    <path class="cls-75" d="M170.19,270c-25.65-9.6-37.63-27-40.25-30.7-4.69-7.18,15.69-10.05,23.35-11.86,17.14-4.05,19.74-4.06,7.45-11-7.9-4.54-26.23-9-17.63-16.33l13.74.25c-19,5.56,64.66,21.68,55.05,27.24-12.39,7.17,11.24,17.1,21.89,20.88C257,256.68,281,264.05,325.39,270Z"/>
    <g>
      <path class="cls-76" d="M72.32,220.26a1.52,1.52,0,0,1-1.78,0,1.9,1.9,0,0,1-2,.37c-1-.49-.24-1.42-.24-1.42s-1.07.06-.91-.8c.21-1.07,1.8-.64,1.8-.64a1,1,0,0,1,1.11-1.28c1.4,0,1.13,1,1.13,1s1.57-.65,1.91.33-.88,1.06-.88,1.06A.89.89,0,0,1,72.32,220.26Z"/>
      <path class="cls-76" d="M57.09,215.73a1.21,1.21,0,0,1-1.42-.12,1.54,1.54,0,0,1-1.59.18c-.78-.45-.1-1.14-.1-1.14s-.86,0-.67-.69c.23-.84,1.48-.41,1.48-.41a.83.83,0,0,1,1-1c1.11.08.83.86.83.86s1.29-.42,1.5.38-.77.78-.77.78A.72.72,0,0,1,57.09,215.73Z"/>
      <path class="cls-76" d="M77.14,211.26a1.21,1.21,0,0,1-1.32-.55,1.57,1.57,0,0,1-1.59-.3c-.58-.67.3-1.12.3-1.12s-.82-.27-.41-.86,1.55.06,1.55.06a.87.87,0,0,1,1.26-.62c1,.41.5,1.07.5,1.07s1.38,0,1.31.81-1,.52-1,.52A.73.73,0,0,1,77.14,211.26Z"/>
      <path class="cls-76" d="M48.81,220.33a1.35,1.35,0,0,1-1.57.25,1.69,1.69,0,0,1-1.67.63c-1-.27-.45-1.21-.45-1.21s-.93.21-.93-.57c0-1,1.46-.84,1.46-.84a.91.91,0,0,1,.77-1.3c1.22-.21,1.15.71,1.15.71s1.27-.81,1.74,0-.6,1.06-.6,1.06A.81.81,0,0,1,48.81,220.33Z"/>
      <path class="cls-76" d="M32.42,222.6a1.12,1.12,0,0,1-1.31-.15,1.4,1.4,0,0,1-1.47.13c-.71-.43-.06-1.05-.06-1.05s-.8,0-.6-.66c.23-.77,1.36-.34,1.36-.34a.78.78,0,0,1,.94-.86c1,.1.74.81.74.81s1.2-.35,1.37.39-.73.71-.73.71A.66.66,0,0,1,32.42,222.6Z"/>
      <path class="cls-76" d="M86.51,213.52a1.12,1.12,0,0,1-1.23-.46,1.43,1.43,0,0,1-1.47-.22c-.56-.59.23-1,.23-1s-.76-.23-.41-.78,1.42,0,1.42,0a.8.8,0,0,1,1.13-.62c1,.34.5,1,.5,1s1.27-.07,1.23.7-.89.5-.89.5A.68.68,0,0,1,86.51,213.52Z"/>
      <path class="cls-76" d="M139.57,214.67a1.13,1.13,0,0,1-1.29-.29,1.44,1.44,0,0,1-1.49,0c-.64-.5.07-1,.07-1s-.79-.12-.52-.71c.32-.75,1.41-.2,1.41-.2a.78.78,0,0,1,1-.76c1,.2.64.89.64.89s1.24-.24,1.32.52-.81.63-.81.63A.68.68,0,0,1,139.57,214.67Z"/>
      <path class="cls-76" d="M130.07,209a.93.93,0,0,1-1-.24,1.13,1.13,0,0,1-1.2,0c-.52-.4.06-.85.06-.85s-.64-.1-.42-.58,1.14-.16,1.14-.16a.63.63,0,0,1,.83-.61c.81.17.52.72.52.72s1-.19,1.07.42-.66.51-.66.51A.55.55,0,0,1,130.07,209Z"/>
    </g>
    <g>
      <path class="cls-77" d="M210.64,219.13a1,1,0,0,0,1.15-.23,1.23,1.23,0,0,0,1.3,0c.6-.43,0-.94,0-.94s.7-.08.5-.62-1.24-.2-1.24-.2a.66.66,0,0,0-.87-.68c-.89.16-.6.77-.6.77s-1.08-.23-1.19.44.7.57.7.57A.59.59,0,0,0,210.64,219.13Z"/>
      <path class="cls-77" d="M242.52,224.07a.82.82,0,0,0,1,.12,1,1,0,0,0,1,.35c.59-.18.23-.74.23-.74s.58.12.55-.36-.92-.49-.92-.49a.57.57,0,0,0-.52-.78c-.74-.11-.67.45-.67.45s-.8-.47-1.06,0,.4.63.4.63A.5.5,0,0,0,242.52,224.07Z"/>
      <path class="cls-77" d="M219,213.6a.81.81,0,0,0,.9-.25,1,1,0,0,0,1-.07c.44-.38-.08-.75-.08-.75s.55-.1.35-.52-1-.09-1-.09a.54.54,0,0,0-.74-.49c-.71.18-.43.65-.43.65s-.89-.12-.92.42.58.41.58.41A.47.47,0,0,0,219,213.6Z"/>
      <path class="cls-77" d="M196.81,212.17a.77.77,0,0,0,.78-.51,1,1,0,0,0,1-.38c.3-.5-.33-.69-.33-.69s.5-.27.16-.6-1,.22-1,.22a.57.57,0,0,0-.89-.24c-.61.38-.19.75-.19.75s-.89.15-.75.67.71.22.71.22A.48.48,0,0,0,196.81,212.17Z"/>
      <path class="cls-77" d="M225.66,216.82a.89.89,0,0,0,1,0,1.08,1.08,0,0,0,1.14.2c.59-.28.14-.83.14-.83s.63,0,.53-.47-1-.36-1-.36a.6.6,0,0,0-.65-.75c-.8,0-.65.59-.65.59s-.91-.37-1.11.21.5.61.5.61A.53.53,0,0,0,225.66,216.82Z"/>
      <path class="cls-77" d="M233.68,215.87a.66.66,0,0,0,.74-.22.84.84,0,0,0,.87-.09c.37-.32-.08-.62-.08-.62s.46-.1.28-.44-.83-.05-.83-.05a.45.45,0,0,0-.63-.4c-.58.17-.35.55-.35.55s-.73-.08-.75.37.5.33.5.33A.4.4,0,0,0,233.68,215.87Z"/>
      <path class="cls-77" d="M205.56,212.5a.74.74,0,0,0,.74-.44.94.94,0,0,0,.92-.32c.29-.44-.28-.63-.28-.63s.47-.24.18-.55-.92.17-.92.17a.52.52,0,0,0-.8-.26c-.57.33-.2.68-.2.68s-.83.11-.71.59.63.22.63.22A.45.45,0,0,0,205.56,212.5Z"/>
      <path class="cls-77" d="M184.37,210.12a.76.76,0,0,0,.8-.35.91.91,0,0,0,1-.19c.36-.4-.16-.67-.16-.67s.48-.17.24-.52-.92,0-.92,0a.52.52,0,0,0-.76-.37c-.62.26-.3.65-.3.65s-.83,0-.79.5.59.31.59.31A.45.45,0,0,0,184.37,210.12Z"/>
      <path class="cls-77" d="M194.29,207.46a.6.6,0,0,0,.64-.28.74.74,0,0,0,.77-.15c.29-.32-.14-.54-.14-.54s.4-.14.21-.43-.75,0-.75,0a.42.42,0,0,0-.61-.3c-.5.21-.25.53-.25.53s-.67,0-.64.4.48.25.48.25A.36.36,0,0,0,194.29,207.46Z"/>
      <path class="cls-77" d="M177,206.07a.58.58,0,0,0,.69-.09.75.75,0,0,0,.78.07c.38-.23,0-.56,0-.56s.42,0,.31-.35-.73-.18-.73-.18a.41.41,0,0,0-.5-.45c-.54.05-.38.43-.38.43s-.65-.19-.73.21.39.37.39.37A.36.36,0,0,0,177,206.07Z"/>
    </g>
  </g>
  <g>
    <path class="cls-78" d="M266.58,186c-15.95-1.08,6.22,6.36,25.55,7.84,0,0,20.39,7.65,23.16,4,1.63-2.14,10.64,0,16.82,1.65,8.89-2.49,3.89-1.49,19-4.78A258.82,258.82,0,0,0,299,186C283.87,185.1,273.08,186.4,266.58,186Z"/>
    <g>
      <g>
        <path class="cls-79" d="M302.12,164.88s-10.14-14.73-15-15.36C283,149,270,138,266.07,128.91c4.86,7,15.45,17.52,19.77,18.44,9.23,1.94,14.79,10.15,16.91,13.69C304.48,163.91,302.12,164.88,302.12,164.88Z"/>
        <path class="cls-79" d="M301.71,167.32s9.61-14.76,13.76-16.4,4.33-9.66,14.52-21.74c-7.45,12.47-9.61,20.45-15.92,26.33-3.05,2.85-8.44,12.91-11,16.4S301.71,167.32,301.71,167.32Z"/>
        <path class="cls-79" d="M301.46,189.45c-2,1-3.42.87-4.37-.07s1.74-18.63,1.78-21.21c.13-8.34-3.53-54.48,11.66-81.47-9.67,22.42-9.17,49.93-6.82,65,1.31,8.38,2.26,37.07,2.15,37.14C304.84,189.54,303.37,188.54,301.46,189.45Z"/>
      </g>
      <path class="cls-80" d="M305,188.51c.28-11.47-1-27.38-.72-29.75,0,0-.79,6.89-2.95,11.19-.2.41-1.25,19,.38,18.21A3.57,3.57,0,0,1,305,188.51Z"/>
    </g>
    <path class="cls-81" d="M302.48,77c4.86-.91,15.87,3.43,8.65,10.58,4.53-.6,14.32.69,12.63,11.44,3.34-2.59,10.28,2,5.61,10.72,3.71-.73,10,.33,4.43,7.65,10-9.32,15.15,12.11,6.08,20.23,9.5,7.46,5.82,14.45-1.89,16.54-.58,5.3-13.48,4.77-14.61-1.9C318,162.31,309.2,152,307.76,149c-.68-1.41-7.6,2.73-17.18-1.71-2.56-1.19-14.82,5.62-22,.86-4.1-2.73-9.63-6.9-4.68-11.67-3.31-2.78-4.41-10.3,2.24-10.66-9.22-5.88-1.41-8.88,1.7-5.66-.11-1.69.61-3.74,5.3-1.53-3.28-8.08.65-7.2-2-11.33-2.31-3.55-.79-8.11,3.5-9.86-4.78-6.68,6.19-8.94,11.15-3.15,0-3.27.39-8.36,2.45-7.33,2.86,1.42-1.11-4.66,1.77-8.91C296.6,68.27,304.39,73.47,302.48,77Z"/>
    <g>
      <path class="cls-79" d="M299.71,137.19s-11.06-6.63-12.35-10c-1.15-3-3.76-10.4-7.92-19.33,4.7,6.64,5.95,15,11.05,21.2,1.91,2.31,8.39,4.45,10.7,6.54S299.71,137.19,299.71,137.19Z"/>
      <path class="cls-79" d="M295.42,135.32s-12.16-5.44-20.56-13.72c7.94,9.07,20.65,15.09,21.7,15S295.42,135.32,295.42,135.32Z"/>
      <path class="cls-79" d="M298.74,101.22s-3.4-4.57-5.88-13.66c1.4,7.64,8.45,20.4,9.07,20.86S298.74,101.22,298.74,101.22Z"/>
    </g>
    <path class="cls-82" d="M308.51,71.65c2.46-4.87,8.16.33,6.48,5.67,4.55-.24,5.58,3.35,2.17,5.29,4,2.24,8.58,8.76,3.48,11.84,6.36.71-6.3,12.4,5.66,10.31,1.94-.34,3.05,1.69,3.14,2.41,7.28-9,11.66,6.26,8.72,9.76,1.44-.06,4.58.56,5.12,2,3.11-1.49,10.24,1.67,6.68,5.18,14.67,5.19-3.5,26.52-9.27,17-3,7.87-8.48,9-14.79,6.85.11,4.39-2.78,6-6,5.14-4.26-.82-4.85-5.36-6.08-8.45-4.08-10.66-9.18,1.46-17.16-3.38-2.89-1.6-2.18-9.3-5.23-8.41-15.32,4.51-2.21,12.16-10.39,15.65-2.65,1.14-5.57,2.23-12.27.31,5.42,7.32-7.37,6-11.23.25-4.11-6.2-4.06-16.3,3.57-12.13-3.51-5.78-6.82-8.13-2.33-15-.51-3.13-3.55-6.78.32-7.39,3.29-.52,5.54.74,7.26,4.11,3.29,1.4,5.63,3.15,6.38,6.08a13.59,13.59,0,0,1,8.73,2.79c2.31-1,5.35,0,7.82-1.92-2.52-1.28-7.54-1.63-9.31-3.37-2.67-2.62-1-8.75,2.65-5.79,3.27-9-4.93-5.75-7.79-11.48-3-6.06,6.21-6.77,9.28-3.67-1.23-3.44,5.94-.66,7.45,1.36,1.17-4.27,6.23-1.73,9.2-5-3.35-3.68-5-9.81-1.77-13.08,3.72-3.78-3.1-6.4,1.57-10.31C304.22,75.46,302.75,70.86,308.51,71.65Z"/>
    <g>
      <path class="cls-79" d="M321.62,143.58s13.45,1.16,24.79-4.08c-12.35,3.87-20.65,3.4-24.33,2.49C321.09,141.74,321.62,143.58,321.62,143.58Z"/>
      <path class="cls-79" d="M312,119.14s6.32-2.36,13.74-9.11c-5.09,6.14-18.23,13.3-19,13.34S312,119.14,312,119.14Z"/>
      <path class="cls-79" d="M294,153.8s-14.75-.89-25.38-7.45c11.8,5.32,21.11,5.94,24.88,5.55C295.75,151.67,294,153.8,294,153.8Z"/>
    </g>
    <g>
      <path class="cls-83" d="M328,141.91c6.09,0,5.39-4.5,5.45-7.91,3.36-.58,5.77-.26,7.63,1.12,1.3-1,4.19-6.2-1.43-8.66-1.85-6-7.17-7.47-11.46-3.77-7-6.18-6.95,5.18-4.31,8.05-.37,5.37-13-1.71-10,10.17a4,4,0,0,0,3.53-.59C323.92,148.83,328.15,143,328,141.91Z"/>
      <path class="cls-84" d="M290.08,104.32c2.51,3.75,3.66.29,6.83,5.35.65-5.91,6.85-.22,8.77,2,1.3-5.64,6.1.11,7.68,2.41,2.09.58,5,2.3,4.51,4.81-.6,3.21-8,3.12-10.47,2.91s-7.33-2.71-9.09.54c-.6,1.12,3.25,5.33-4,4.5.42,0-3,3.64-7.12.88-6.16-4.14-.11-10.87-.52-12.15-4.58-3.71-2.68-9.05-.22-8.47C285.84,105.51,288.51,102,290.08,104.32Z"/>
      <path class="cls-85" d="M279.49,132.46c2.47-3-6.37-7.73-10-2.63,2-3.75-10.54-1.69-3.48,3-3-.42-5.49,5.44-1,5.2,3.45,2.38,5.38,2.53,9.82.29-.43,7.13,14.25,1.78,9.1-.5S286.24,135.05,279.49,132.46Z"/>
    </g>
  </g>
</svg>
